{
    "asset" : {
        "generator" : "Khronos glTF Blender I/O v1.5.17",
        "version" : "2.0"
    },
    "scene" : 0,
    "scenes" : [
        {
            "name" : "Scene",
            "nodes" : [
                0,
                1,
                2,
                3,
                4,
                5
            ]
        }
    ],
    "nodes" : [
        {
            "name" : "Light",
            "rotation" : [
                0.16907575726509094,
                0.7558803558349609,
                -0.27217137813568115,
                0.570947527885437
            ],
            "translation" : [
                4.076245307922363,
                5.903861999511719,
                -1.0054539442062378
            ]
        },
        {
            "name" : "Camera",
            "rotation" : [
                0.483536034822464,
                0.33687159419059753,
                -0.20870360732078552,
                0.7804827094078064
            ],
            "translation" : [
                7.358891487121582,
                4.958309173583984,
                6.925790786743164
            ]
        },
        {
            "mesh" : 0,
            "name" : "Cube",
            "scale" : [
                -1,
                0.054722368717193604,
                -0.7409560680389404
            ],
            "translation" : [
                0.008024793118238449,
                0.23658263683319092,
                0.09235738217830658
            ]
        },
        {
            "mesh" : 1,
            "name" : "Cube.001",
            "rotation" : [
                -0.4055798053741455,
                -0.4055797755718231,
                0.5792279243469238,
                0.5792279839515686
            ],
            "scale" : [
                -0.19255566596984863,
                0.28357693552970886,
                -0.3931396007537842
            ],
            "translation" : [
                -0.09844900667667389,
                1.1525747776031494,
                0.09900329262018204
            ]
        },
        {
            "mesh" : 2,
            "name" : "Cylinder",
            "rotation" : [
                -0.16873590648174286,
                -0.16873589158058167,
                0.6866791248321533,
                0.6866791844367981
            ],
            "scale" : [
                -0.029891012236475945,
                -0.029891012236475945,
                -0.029891012236475945
            ],
            "translation" : [
                0.13016389310359955,
                1.13974928855896,
                0.24531999230384827
            ]
        },
        {
            "mesh" : 3,
            "name" : "Cylinder.001",
            "rotation" : [
                0.09517880529165268,
                0.09517879784107208,
                0.7006717920303345,
                0.7006718516349792
            ],
            "scale" : [
                -0.029891012236475945,
                -0.029891012236475945,
                -0.029891012236475945
            ],
            "translation" : [
                0.13016389310359955,
                1.13974928855896,
                0.15890327095985413
            ]
        }
    ],
    "materials" : [
        {
            "doubleSided" : true,
            "name" : "Material.007",
            "pbrMetallicRoughness" : {
                "baseColorTexture" : {
                    "index" : 0
                },
                "metallicFactor" : 0,
                "roughnessFactor" : 0.5
            }
        },
        {
            "doubleSided" : true,
            "name" : "Material.004",
            "pbrMetallicRoughness" : {
                "baseColorTexture" : {
                    "index" : 1
                },
                "metallicFactor" : 0,
                "roughnessFactor" : 0.5
            }
        },
        {
            "doubleSided" : true,
            "name" : "ScewDriver",
            "pbrMetallicRoughness" : {
                "baseColorTexture" : {
                    "index" : 2
                },
                "metallicFactor" : 0,
                "roughnessFactor" : 0.5
            }
        }
    ],
    "meshes" : [
        {
            "name" : "Cube.001",
            "primitives" : [
                {
                    "attributes" : {
                        "POSITION" : 0,
                        "NORMAL" : 1,
                        "TEXCOORD_0" : 2
                    },
                    "indices" : 3,
                    "material" : 0
                }
            ]
        },
        {
            "name" : "Cube.002",
            "primitives" : [
                {
                    "attributes" : {
                        "POSITION" : 4,
                        "NORMAL" : 5,
                        "TEXCOORD_0" : 6
                    },
                    "indices" : 7,
                    "material" : 1
                }
            ]
        },
        {
            "name" : "Cylinder.002",
            "primitives" : [
                {
                    "attributes" : {
                        "POSITION" : 8,
                        "NORMAL" : 9,
                        "TEXCOORD_0" : 10
                    },
                    "indices" : 11,
                    "material" : 2
                }
            ]
        },
        {
            "name" : "Cylinder.003",
            "primitives" : [
                {
                    "attributes" : {
                        "POSITION" : 12,
                        "NORMAL" : 13,
                        "TEXCOORD_0" : 14
                    },
                    "indices" : 11,
                    "material" : 2
                }
            ]
        }
    ],
    "textures" : [
        {
            "sampler" : 0,
            "source" : 0
        },
        {
            "sampler" : 0,
            "source" : 1
        },
        {
            "sampler" : 0,
            "source" : 2
        }
    ],
    "images" : [
        {
            "bufferView" : 4,
            "mimeType" : "image/png",
            "name" : "PCDeskV2"
        },
        {
            "bufferView" : 9,
            "mimeType" : "image/png",
            "name" : "ComputerTextureV8PacketTracer2"
        },
        {
            "bufferView" : 14,
            "mimeType" : "image/png",
            "name" : "ScreewDriver"
        }
    ],
    "accessors" : [
        {
            "bufferView" : 0,
            "componentType" : 5126,
            "count" : 152,
            "max" : [
                0.25,
                15.881490707397461,
                0.25
            ],
            "min" : [
                -0.25,
                -4.29233455657959,
                -0.25
            ],
            "type" : "VEC3"
        },
        {
            "bufferView" : 1,
            "componentType" : 5126,
            "count" : 152,
            "type" : "VEC3"
        },
        {
            "bufferView" : 2,
            "componentType" : 5126,
            "count" : 152,
            "type" : "VEC2"
        },
        {
            "bufferView" : 3,
            "componentType" : 5123,
            "count" : 252,
            "type" : "SCALAR"
        },
        {
            "bufferView" : 5,
            "componentType" : 5126,
            "count" : 609,
            "max" : [
                0.25,
                0.25,
                0.25
            ],
            "min" : [
                -0.25,
                -0.25,
                -0.25
            ],
            "type" : "VEC3"
        },
        {
            "bufferView" : 6,
            "componentType" : 5126,
            "count" : 609,
            "type" : "VEC3"
        },
        {
            "bufferView" : 7,
            "componentType" : 5126,
            "count" : 609,
            "type" : "VEC2"
        },
        {
            "bufferView" : 8,
            "componentType" : 5123,
            "count" : 1092,
            "type" : "SCALAR"
        },
        {
            "bufferView" : 10,
            "componentType" : 5126,
            "count" : 132,
            "max" : [
                0.20863552391529083,
                0.20000000298023224,
                0.24091152846813202
            ],
            "min" : [
                -0.20863552391529083,
                -2.2398362159729004,
                -0.24091152846813202
            ],
            "type" : "VEC3"
        },
        {
            "bufferView" : 11,
            "componentType" : 5126,
            "count" : 132,
            "type" : "VEC3"
        },
        {
            "bufferView" : 12,
            "componentType" : 5126,
            "count" : 132,
            "type" : "VEC2"
        },
        {
            "bufferView" : 13,
            "componentType" : 5123,
            "count" : 204,
            "type" : "SCALAR"
        },
        {
            "bufferView" : 15,
            "componentType" : 5126,
            "count" : 132,
            "max" : [
                0.20863552391529083,
                0.20000000298023224,
                0.24091152846813202
            ],
            "min" : [
                -0.20863552391529083,
                -2.2398362159729004,
                -0.24091152846813202
            ],
            "type" : "VEC3"
        },
        {
            "bufferView" : 16,
            "componentType" : 5126,
            "count" : 132,
            "type" : "VEC3"
        },
        {
            "bufferView" : 17,
            "componentType" : 5126,
            "count" : 132,
            "type" : "VEC2"
        }
    ],
    "bufferViews" : [
        {
            "buffer" : 0,
            "byteLength" : 1824,
            "byteOffset" : 0
        },
        {
            "buffer" : 0,
            "byteLength" : 1824,
            "byteOffset" : 1824
        },
        {
            "buffer" : 0,
            "byteLength" : 1216,
            "byteOffset" : 3648
        },
        {
            "buffer" : 0,
            "byteLength" : 504,
            "byteOffset" : 4864
        },
        {
            "buffer" : 0,
            "byteLength" : 417519,
            "byteOffset" : 5368
        },
        {
            "buffer" : 0,
            "byteLength" : 7308,
            "byteOffset" : 422888
        },
        {
            "buffer" : 0,
            "byteLength" : 7308,
            "byteOffset" : 430196
        },
        {
            "buffer" : 0,
            "byteLength" : 4872,
            "byteOffset" : 437504
        },
        {
            "buffer" : 0,
            "byteLength" : 2184,
            "byteOffset" : 442376
        },
        {
            "buffer" : 0,
            "byteLength" : 1733220,
            "byteOffset" : 444560
        },
        {
            "buffer" : 0,
            "byteLength" : 1584,
            "byteOffset" : 2177780
        },
        {
            "buffer" : 0,
            "byteLength" : 1584,
            "byteOffset" : 2179364
        },
        {
            "buffer" : 0,
            "byteLength" : 1056,
            "byteOffset" : 2180948
        },
        {
            "buffer" : 0,
            "byteLength" : 408,
            "byteOffset" : 2182004
        },
        {
            "buffer" : 0,
            "byteLength" : 190,
            "byteOffset" : 2182412
        },
        {
            "buffer" : 0,
            "byteLength" : 1584,
            "byteOffset" : 2182604
        },
        {
            "buffer" : 0,
            "byteLength" : 1584,
            "byteOffset" : 2184188
        },
        {
            "buffer" : 0,
            "byteLength" : 1056,
            "byteOffset" : 2185772
        }
    ],
    "samplers" : [
        {
            "magFilter" : 9729,
            "minFilter" : 9987
        }
    ],
    "buffers" : [
        {
            "byteLength" : 2186828,
            "uri" : "data:application/octet-stream;base64,"
        }
    ]
}
