{
    "asset" : {
        "generator" : "Khronos glTF Blender I/O v1.5.17",
        "version" : "2.0"
    },
    "scene" : 0,
    "scenes" : [
        {
            "name" : "Scene",
            "nodes" : [
                0,
                1,
                2,
                3,
                4,
                5
            ]
        }
    ],
    "nodes" : [
        {
            "name" : "Light",
            "rotation" : [
                0.16907575726509094,
                0.7558803558349609,
                -0.27217137813568115,
                0.570947527885437
            ],
            "translation" : [
                4.076245307922363,
                5.903861999511719,
                -1.0054539442062378
            ]
        },
        {
            "name" : "Camera",
            "rotation" : [
                0.483536034822464,
                0.33687159419059753,
                -0.20870360732078552,
                0.7804827094078064
            ],
            "translation" : [
                7.358891487121582,
                4.958309173583984,
                6.925790786743164
            ]
        },
        {
            "mesh" : 0,
            "name" : "Cube",
            "translation" : [
                0,
                0.2527618408203125,
                0
            ]
        },
        {
            "mesh" : 1,
            "name" : "Cube.002",
            "rotation" : [
                0.6755902171134949,
                0,
                0,
                0.7372773885726929
            ],
            "scale" : [
                0.7523882389068604,
                -0.18174755573272705,
                0.2945575714111328
            ],
            "translation" : [
                0,
                2.5556647777557373,
                0.15688413381576538
            ]
        },
        {
            "mesh" : 2,
            "name" : "Cube.003",
            "rotation" : [
                0,
                0.7071067690849304,
                0,
                0.7071068286895752
            ],
            "scale" : [
                0.21373599767684937,
                0.9752692580223083,
                0.21466219425201416
            ],
            "translation" : [
                0.28516799211502075,
                2.597276210784912,
                -0.0009496435523033142
            ]
        },
        {
            "mesh" : 3,
            "name" : "Cube.004",
            "rotation" : [
                0,
                -0.6755902171134949,
                0,
                0.7372773885726929
            ],
            "scale" : [
                0.21373599767684937,
                0.9752692580223083,
                0.21466219425201416
            ],
            "translation" : [
                -0.28699445724487305,
                2.597276210784912,
                -0.0009496435523033142
            ]
        }
    ],
    "materials" : [
        {
            "doubleSided" : true,
            "name" : "Material.002",
            "pbrMetallicRoughness" : {
                "baseColorTexture" : {
                    "index" : 0
                },
                "metallicFactor" : 0,
                "roughnessFactor" : 0.5
            }
        },
        {
            "doubleSided" : true,
            "name" : "Material.001",
            "pbrMetallicRoughness" : {
                "baseColorTexture" : {
                    "index" : 1
                },
                "metallicFactor" : 0,
                "roughnessFactor" : 0.5
            }
        }
    ],
    "meshes" : [
        {
            "name" : "Cube.001",
            "primitives" : [
                {
                    "attributes" : {
                        "POSITION" : 0,
                        "NORMAL" : 1,
                        "TEXCOORD_0" : 2
                    },
                    "indices" : 3,
                    "material" : 0
                }
            ]
        },
        {
            "name" : "Cube.003",
            "primitives" : [
                {
                    "attributes" : {
                        "POSITION" : 4,
                        "NORMAL" : 5,
                        "TEXCOORD_0" : 6
                    },
                    "indices" : 7,
                    "material" : 1
                }
            ]
        },
        {
            "name" : "Cube.004",
            "primitives" : [
                {
                    "attributes" : {
                        "POSITION" : 8,
                        "NORMAL" : 9,
                        "TEXCOORD_0" : 10
                    },
                    "indices" : 11,
                    "material" : 0
                }
            ]
        },
        {
            "name" : "Cube.005",
            "primitives" : [
                {
                    "attributes" : {
                        "POSITION" : 12,
                        "NORMAL" : 13,
                        "TEXCOORD_0" : 14
                    },
                    "indices" : 11,
                    "material" : 0
                }
            ]
        }
    ],
    "textures" : [
        {
            "sampler" : 0,
            "source" : 0
        },
        {
            "sampler" : 0,
            "source" : 1
        }
    ],
    "images" : [
        {
            "bufferView" : 4,
            "mimeType" : "image/png",
            "name" : "Kokkenbord"
        },
        {
            "bufferView" : 9,
            "mimeType" : "image/png",
            "name" : "BDSpotV1"
        }
    ],
    "accessors" : [
        {
            "bufferView" : 0,
            "componentType" : 5126,
            "count" : 106,
            "max" : [
                0.25,
                2.6043248176574707,
                0.25
            ],
            "min" : [
                -0.25,
                -0.25,
                -0.25
            ],
            "type" : "VEC3"
        },
        {
            "bufferView" : 1,
            "componentType" : 5126,
            "count" : 106,
            "type" : "VEC3"
        },
        {
            "bufferView" : 2,
            "componentType" : 5126,
            "count" : 106,
            "type" : "VEC2"
        },
        {
            "bufferView" : 3,
            "componentType" : 5123,
            "count" : 180,
            "type" : "SCALAR"
        },
        {
            "bufferView" : 5,
            "componentType" : 5126,
            "count" : 223,
            "max" : [
                0,
                0.25,
                0.25
            ],
            "min" : [
                -0.2764720320701599,
                -0.25,
                -1.0820045471191406
            ],
            "type" : "VEC3"
        },
        {
            "bufferView" : 6,
            "componentType" : 5126,
            "count" : 223,
            "type" : "VEC3"
        },
        {
            "bufferView" : 7,
            "componentType" : 5126,
            "count" : 223,
            "type" : "VEC2"
        },
        {
            "bufferView" : 8,
            "componentType" : 5123,
            "count" : 378,
            "type" : "SCALAR"
        },
        {
            "bufferView" : 10,
            "componentType" : 5126,
            "count" : 1036,
            "max" : [
                0.48840489983558655,
                0.5196870565414429,
                0.25
            ],
            "min" : [
                -0.4884053170681,
                -0.25,
                -1.1107351779937744
            ],
            "type" : "VEC3"
        },
        {
            "bufferView" : 11,
            "componentType" : 5126,
            "count" : 1036,
            "type" : "VEC3"
        },
        {
            "bufferView" : 12,
            "componentType" : 5126,
            "count" : 1036,
            "type" : "VEC2"
        },
        {
            "bufferView" : 13,
            "componentType" : 5123,
            "count" : 1560,
            "type" : "SCALAR"
        },
        {
            "bufferView" : 14,
            "componentType" : 5126,
            "count" : 1036,
            "max" : [
                0.48840489983558655,
                0.5196870565414429,
                0.25
            ],
            "min" : [
                -0.4884053170681,
                -0.25,
                -1.1107351779937744
            ],
            "type" : "VEC3"
        },
        {
            "bufferView" : 15,
            "componentType" : 5126,
            "count" : 1036,
            "type" : "VEC3"
        },
        {
            "bufferView" : 16,
            "componentType" : 5126,
            "count" : 1036,
            "type" : "VEC2"
        }
    ],
    "bufferViews" : [
        {
            "buffer" : 0,
            "byteLength" : 1272,
            "byteOffset" : 0
        },
        {
            "buffer" : 0,
            "byteLength" : 1272,
            "byteOffset" : 1272
        },
        {
            "buffer" : 0,
            "byteLength" : 848,
            "byteOffset" : 2544
        },
        {
            "buffer" : 0,
            "byteLength" : 360,
            "byteOffset" : 3392
        },
        {
            "buffer" : 0,
            "byteLength" : 579869,
            "byteOffset" : 3752
        },
        {
            "buffer" : 0,
            "byteLength" : 2676,
            "byteOffset" : 583624
        },
        {
            "buffer" : 0,
            "byteLength" : 2676,
            "byteOffset" : 586300
        },
        {
            "buffer" : 0,
            "byteLength" : 1784,
            "byteOffset" : 588976
        },
        {
            "buffer" : 0,
            "byteLength" : 756,
            "byteOffset" : 590760
        },
        {
            "buffer" : 0,
            "byteLength" : 1012789,
            "byteOffset" : 591516
        },
        {
            "buffer" : 0,
            "byteLength" : 12432,
            "byteOffset" : 1604308
        },
        {
            "buffer" : 0,
            "byteLength" : 12432,
            "byteOffset" : 1616740
        },
        {
            "buffer" : 0,
            "byteLength" : 8288,
            "byteOffset" : 1629172
        },
        {
            "buffer" : 0,
            "byteLength" : 3120,
            "byteOffset" : 1637460
        },
        {
            "buffer" : 0,
            "byteLength" : 12432,
            "byteOffset" : 1640580
        },
        {
            "buffer" : 0,
            "byteLength" : 12432,
            "byteOffset" : 1653012
        },
        {
            "buffer" : 0,
            "byteLength" : 8288,
            "byteOffset" : 1665444
        }
    ],
    "samplers" : [
        {
            "magFilter" : 9729,
            "minFilter" : 9987
        }
    ],
    "buffers" : [
        {
            "byteLength" : 1673732,
            "uri" : "data:application/octet-stream;base64,"
        }
    ]
}
