{
    "asset" : {
        "generator" : "Khronos glTF Blender I/O v1.5.17",
        "version" : "2.0"
    },
    "scene" : 0,
    "scenes" : [
        {
            "name" : "Scene",
            "nodes" : [
                0,
                1,
                2,
                3,
                4,
                5,
                6,
                7,
                8
            ]
        }
    ],
    "nodes" : [
        {
            "mesh" : 0,
            "name" : "Cube",
            "scale" : [
                0.28915250301361084,
                -0.2406618595123291,
                0.739892303943634
            ],
            "translation" : [
                0,
                0.20095829665660858,
                0
            ]
        },
        {
            "mesh" : 1,
            "name" : "Cube.002",
            "rotation" : [
                -0.21390509605407715,
                0,
                0,
                -0.9768544435501099
            ],
            "scale" : [
                0.06661579757928848,
                0.17940829694271088,
                0.062112241983413696
            ],
            "translation" : [
                0.08768213540315628,
                0.20095829665660858,
                0.1318722814321518
            ]
        },
        {
            "mesh" : 2,
            "name" : "Cube.003",
            "rotation" : [
                -0.3734895884990692,
                0,
                0,
                0.9276343584060669
            ],
            "scale" : [
                0.05251919478178024,
                0.256019651889801,
                0.03992118686437607
            ],
            "translation" : [
                0.08937311917543411,
                0.061834052205085754,
                0.1272435337305069
            ]
        },
        {
            "mesh" : 3,
            "name" : "Cube.004",
            "rotation" : [
                -0.21390509605407715,
                0,
                0,
                -0.9768544435501099
            ],
            "scale" : [
                -0.06661579757928848,
                0.17940829694271088,
                0.062112241983413696
            ],
            "translation" : [
                -0.08661001920700073,
                0.20095829665660858,
                0.1318722814321518
            ]
        },
        {
            "mesh" : 4,
            "name" : "Cube.005",
            "rotation" : [
                -0.3734895884990692,
                0,
                0,
                0.9276343584060669
            ],
            "scale" : [
                -0.05251919478178024,
                0.256019651889801,
                0.03992118686437607
            ],
            "translation" : [
                -0.08830100297927856,
                0.061834052205085754,
                0.1272435337305069
            ]
        },
        {
            "mesh" : 5,
            "name" : "Cube.006",
            "rotation" : [
                -0.21390509605407715,
                0,
                0,
                -0.9768544435501099
            ],
            "scale" : [
                0.06661579757928848,
                0.17940829694271088,
                0.062112241983413696
            ],
            "translation" : [
                0.08768213540315628,
                0.20095829665660858,
                -0.1426665484905243
            ]
        },
        {
            "mesh" : 6,
            "name" : "Cube.007",
            "rotation" : [
                -0.3734895884990692,
                0,
                0,
                0.9276343584060669
            ],
            "scale" : [
                0.05251919478178024,
                0.256019651889801,
                0.03992118686437607
            ],
            "translation" : [
                0.08937311917543411,
                0.061834052205085754,
                -0.1472952961921692
            ]
        },
        {
            "mesh" : 7,
            "name" : "Cube.008",
            "rotation" : [
                -0.21390509605407715,
                0,
                0,
                -0.9768544435501099
            ],
            "scale" : [
                -0.06661579757928848,
                0.17940829694271088,
                0.062112241983413696
            ],
            "translation" : [
                -0.08661001920700073,
                0.20095829665660858,
                -0.1426665484905243
            ]
        },
        {
            "mesh" : 8,
            "name" : "Cube.009",
            "rotation" : [
                -0.3734895884990692,
                0,
                0,
                0.9276343584060669
            ],
            "scale" : [
                -0.05251919478178024,
                0.256019651889801,
                0.03992118686437607
            ],
            "translation" : [
                -0.08830100297927856,
                0.061834052205085754,
                -0.1472952961921692
            ]
        }
    ],
    "meshes" : [
        {
            "name" : "Cube.002",
            "primitives" : [
                {
                    "attributes" : {
                        "POSITION" : 0,
                        "NORMAL" : 1,
                        "TEXCOORD_0" : 2
                    },
                    "indices" : 3
                }
            ]
        },
        {
            "name" : "Cube.004",
            "primitives" : [
                {
                    "attributes" : {
                        "POSITION" : 4,
                        "NORMAL" : 5,
                        "TEXCOORD_0" : 6
                    },
                    "indices" : 7
                }
            ]
        },
        {
            "name" : "Cube.005",
            "primitives" : [
                {
                    "attributes" : {
                        "POSITION" : 8,
                        "NORMAL" : 9,
                        "TEXCOORD_0" : 10
                    },
                    "indices" : 11
                }
            ]
        },
        {
            "name" : "Cube.008",
            "primitives" : [
                {
                    "attributes" : {
                        "POSITION" : 12,
                        "NORMAL" : 13,
                        "TEXCOORD_0" : 14
                    },
                    "indices" : 7
                }
            ]
        },
        {
            "name" : "Cube.009",
            "primitives" : [
                {
                    "attributes" : {
                        "POSITION" : 15,
                        "NORMAL" : 16,
                        "TEXCOORD_0" : 17
                    },
                    "indices" : 11
                }
            ]
        },
        {
            "name" : "Cube.010",
            "primitives" : [
                {
                    "attributes" : {
                        "POSITION" : 18,
                        "NORMAL" : 19,
                        "TEXCOORD_0" : 20
                    },
                    "indices" : 7
                }
            ]
        },
        {
            "name" : "Cube.011",
            "primitives" : [
                {
                    "attributes" : {
                        "POSITION" : 21,
                        "NORMAL" : 22,
                        "TEXCOORD_0" : 23
                    },
                    "indices" : 11
                }
            ]
        },
        {
            "name" : "Cube.012",
            "primitives" : [
                {
                    "attributes" : {
                        "POSITION" : 24,
                        "NORMAL" : 25,
                        "TEXCOORD_0" : 26
                    },
                    "indices" : 7
                }
            ]
        },
        {
            "name" : "Cube.013",
            "primitives" : [
                {
                    "attributes" : {
                        "POSITION" : 27,
                        "NORMAL" : 28,
                        "TEXCOORD_0" : 29
                    },
                    "indices" : 11
                }
            ]
        }
    ],
    "accessors" : [
        {
            "bufferView" : 0,
            "componentType" : 5126,
            "count" : 190,
            "max" : [
                0.25,
                0.323088139295578,
                0.2944483160972595
            ],
            "min" : [
                -0.25,
                -0.25,
                -0.33779600262641907
            ],
            "type" : "VEC3"
        },
        {
            "bufferView" : 1,
            "componentType" : 5126,
            "count" : 190,
            "type" : "VEC3"
        },
        {
            "bufferView" : 2,
            "componentType" : 5126,
            "count" : 190,
            "type" : "VEC2"
        },
        {
            "bufferView" : 3,
            "componentType" : 5123,
            "count" : 300,
            "type" : "SCALAR"
        },
        {
            "bufferView" : 4,
            "componentType" : 5126,
            "count" : 42,
            "max" : [
                0.25,
                0.25,
                0.25
            ],
            "min" : [
                -0.25,
                -0.6470321416854858,
                -0.25
            ],
            "type" : "VEC3"
        },
        {
            "bufferView" : 5,
            "componentType" : 5126,
            "count" : 42,
            "type" : "VEC3"
        },
        {
            "bufferView" : 6,
            "componentType" : 5126,
            "count" : 42,
            "type" : "VEC2"
        },
        {
            "bufferView" : 7,
            "componentType" : 5123,
            "count" : 72,
            "type" : "SCALAR"
        },
        {
            "bufferView" : 8,
            "componentType" : 5126,
            "count" : 92,
            "max" : [
                0.2500000298023224,
                0.25,
                0.25
            ],
            "min" : [
                -0.2500000298023224,
                -0.2808256149291992,
                -0.25
            ],
            "type" : "VEC3"
        },
        {
            "bufferView" : 9,
            "componentType" : 5126,
            "count" : 92,
            "type" : "VEC3"
        },
        {
            "bufferView" : 10,
            "componentType" : 5126,
            "count" : 92,
            "type" : "VEC2"
        },
        {
            "bufferView" : 11,
            "componentType" : 5123,
            "count" : 156,
            "type" : "SCALAR"
        },
        {
            "bufferView" : 12,
            "componentType" : 5126,
            "count" : 42,
            "max" : [
                0.25,
                0.25,
                0.25
            ],
            "min" : [
                -0.25,
                -0.6470321416854858,
                -0.25
            ],
            "type" : "VEC3"
        },
        {
            "bufferView" : 13,
            "componentType" : 5126,
            "count" : 42,
            "type" : "VEC3"
        },
        {
            "bufferView" : 14,
            "componentType" : 5126,
            "count" : 42,
            "type" : "VEC2"
        },
        {
            "bufferView" : 15,
            "componentType" : 5126,
            "count" : 92,
            "max" : [
                0.2500000298023224,
                0.25,
                0.25
            ],
            "min" : [
                -0.2500000298023224,
                -0.2808256149291992,
                -0.25
            ],
            "type" : "VEC3"
        },
        {
            "bufferView" : 16,
            "componentType" : 5126,
            "count" : 92,
            "type" : "VEC3"
        },
        {
            "bufferView" : 17,
            "componentType" : 5126,
            "count" : 92,
            "type" : "VEC2"
        },
        {
            "bufferView" : 18,
            "componentType" : 5126,
            "count" : 42,
            "max" : [
                0.25,
                0.25,
                0.25
            ],
            "min" : [
                -0.25,
                -0.6470321416854858,
                -0.25
            ],
            "type" : "VEC3"
        },
        {
            "bufferView" : 19,
            "componentType" : 5126,
            "count" : 42,
            "type" : "VEC3"
        },
        {
            "bufferView" : 20,
            "componentType" : 5126,
            "count" : 42,
            "type" : "VEC2"
        },
        {
            "bufferView" : 21,
            "componentType" : 5126,
            "count" : 92,
            "max" : [
                0.2500000298023224,
                0.25,
                0.25
            ],
            "min" : [
                -0.2500000298023224,
                -0.2808256149291992,
                -0.25
            ],
            "type" : "VEC3"
        },
        {
            "bufferView" : 22,
            "componentType" : 5126,
            "count" : 92,
            "type" : "VEC3"
        },
        {
            "bufferView" : 23,
            "componentType" : 5126,
            "count" : 92,
            "type" : "VEC2"
        },
        {
            "bufferView" : 24,
            "componentType" : 5126,
            "count" : 42,
            "max" : [
                0.25,
                0.25,
                0.25
            ],
            "min" : [
                -0.25,
                -0.6470321416854858,
                -0.25
            ],
            "type" : "VEC3"
        },
        {
            "bufferView" : 25,
            "componentType" : 5126,
            "count" : 42,
            "type" : "VEC3"
        },
        {
            "bufferView" : 26,
            "componentType" : 5126,
            "count" : 42,
            "type" : "VEC2"
        },
        {
            "bufferView" : 27,
            "componentType" : 5126,
            "count" : 92,
            "max" : [
                0.2500000298023224,
                0.25,
                0.25
            ],
            "min" : [
                -0.2500000298023224,
                -0.2808256149291992,
                -0.25
            ],
            "type" : "VEC3"
        },
        {
            "bufferView" : 28,
            "componentType" : 5126,
            "count" : 92,
            "type" : "VEC3"
        },
        {
            "bufferView" : 29,
            "componentType" : 5126,
            "count" : 92,
            "type" : "VEC2"
        }
    ],
    "bufferViews" : [
        {
            "buffer" : 0,
            "byteLength" : 2280,
            "byteOffset" : 0
        },
        {
            "buffer" : 0,
            "byteLength" : 2280,
            "byteOffset" : 2280
        },
        {
            "buffer" : 0,
            "byteLength" : 1520,
            "byteOffset" : 4560
        },
        {
            "buffer" : 0,
            "byteLength" : 600,
            "byteOffset" : 6080
        },
        {
            "buffer" : 0,
            "byteLength" : 504,
            "byteOffset" : 6680
        },
        {
            "buffer" : 0,
            "byteLength" : 504,
            "byteOffset" : 7184
        },
        {
            "buffer" : 0,
            "byteLength" : 336,
            "byteOffset" : 7688
        },
        {
            "buffer" : 0,
            "byteLength" : 144,
            "byteOffset" : 8024
        },
        {
            "buffer" : 0,
            "byteLength" : 1104,
            "byteOffset" : 8168
        },
        {
            "buffer" : 0,
            "byteLength" : 1104,
            "byteOffset" : 9272
        },
        {
            "buffer" : 0,
            "byteLength" : 736,
            "byteOffset" : 10376
        },
        {
            "buffer" : 0,
            "byteLength" : 312,
            "byteOffset" : 11112
        },
        {
            "buffer" : 0,
            "byteLength" : 504,
            "byteOffset" : 11424
        },
        {
            "buffer" : 0,
            "byteLength" : 504,
            "byteOffset" : 11928
        },
        {
            "buffer" : 0,
            "byteLength" : 336,
            "byteOffset" : 12432
        },
        {
            "buffer" : 0,
            "byteLength" : 1104,
            "byteOffset" : 12768
        },
        {
            "buffer" : 0,
            "byteLength" : 1104,
            "byteOffset" : 13872
        },
        {
            "buffer" : 0,
            "byteLength" : 736,
            "byteOffset" : 14976
        },
        {
            "buffer" : 0,
            "byteLength" : 504,
            "byteOffset" : 15712
        },
        {
            "buffer" : 0,
            "byteLength" : 504,
            "byteOffset" : 16216
        },
        {
            "buffer" : 0,
            "byteLength" : 336,
            "byteOffset" : 16720
        },
        {
            "buffer" : 0,
            "byteLength" : 1104,
            "byteOffset" : 17056
        },
        {
            "buffer" : 0,
            "byteLength" : 1104,
            "byteOffset" : 18160
        },
        {
            "buffer" : 0,
            "byteLength" : 736,
            "byteOffset" : 19264
        },
        {
            "buffer" : 0,
            "byteLength" : 504,
            "byteOffset" : 20000
        },
        {
            "buffer" : 0,
            "byteLength" : 504,
            "byteOffset" : 20504
        },
        {
            "buffer" : 0,
            "byteLength" : 336,
            "byteOffset" : 21008
        },
        {
            "buffer" : 0,
            "byteLength" : 1104,
            "byteOffset" : 21344
        },
        {
            "buffer" : 0,
            "byteLength" : 1104,
            "byteOffset" : 22448
        },
        {
            "buffer" : 0,
            "byteLength" : 736,
            "byteOffset" : 23552
        }
    ],
    "buffers" : [
        {
            "byteLength" : 24288,
            "uri" : "data:application/octet-stream;base64,"
        }
    ]
}
