{
    "asset" : {
        "generator" : "Khronos glTF Blender I/O v1.5.17",
        "version" : "2.0"
    },
    "scene" : 0,
    "scenes" : [
        {
            "name" : "Scene",
            "nodes" : [
                0,
                1,
                2,
                3,
                4,
                5,
                6,
                7,
                8,
                9,
                10,
                11
            ]
        }
    ],
    "nodes" : [
        {
            "name" : "Light",
            "rotation" : [
                0.16907575726509094,
                0.7558803558349609,
                -0.27217137813568115,
                0.570947527885437
            ],
            "translation" : [
                4.076245307922363,
                5.903861999511719,
                -1.0054539442062378
            ]
        },
        {
            "name" : "Camera",
            "rotation" : [
                0.483536034822464,
                0.33687159419059753,
                -0.20870360732078552,
                0.7804827094078064
            ],
            "translation" : [
                7.358891487121582,
                4.958309173583984,
                6.925790786743164
            ]
        },
        {
            "mesh" : 0,
            "name" : "Cube",
            "translation" : [
                0,
                0.9135668873786926,
                0
            ]
        },
        {
            "mesh" : 1,
            "name" : "Cube.001",
            "scale" : [
                1,
                0.04548525810241699,
                0.31167805194854736
            ],
            "translation" : [
                0,
                0.7228026986122131,
                0
            ]
        },
        {
            "mesh" : 2,
            "name" : "Cube.002",
            "scale" : [
                0.17598038911819458,
                0.11796528100967407,
                0.20763838291168213
            ],
            "translation" : [
                0,
                0.7235471606254578,
                -0.26306843757629395
            ]
        },
        {
            "mesh" : 3,
            "name" : "Cube.003",
            "rotation" : [
                -0.08881194144487381,
                0,
                0,
                0.9960485100746155
            ],
            "scale" : [
                1,
                1,
                0.061324894428253174
            ],
            "translation" : [
                -0.017910098657011986,
                1.0540225505828857,
                -0.306621789932251
            ]
        },
        {
            "mesh" : 4,
            "name" : "Cylinder",
            "translation" : [
                0,
                0.2360621988773346,
                0
            ]
        },
        {
            "mesh" : 5,
            "name" : "Cube.004",
            "scale" : [
                0.3996332883834839,
                0.3996332883834839,
                0.3996332883834839
            ],
            "translation" : [
                0,
                0.11405128240585327,
                0
            ]
        },
        {
            "mesh" : 6,
            "name" : "Cylinder.002",
            "rotation" : [
                0,
                0,
                -0.7071067690849304,
                0.7071068286895752
            ],
            "scale" : [
                0.12834399938583374,
                0.12834399938583374,
                0.12834399938583374
            ],
            "translation" : [
                0,
                0.026221154257655144,
                0.25999999046325684
            ]
        },
        {
            "mesh" : 7,
            "name" : "Cylinder.003",
            "rotation" : [
                0,
                0,
                -0.7071067690849304,
                0.7071068286895752
            ],
            "scale" : [
                0.12834399938583374,
                0.12834399938583374,
                0.12834399938583374
            ],
            "translation" : [
                0,
                0.026221154257655144,
                -0.25999999046325684
            ]
        },
        {
            "mesh" : 8,
            "name" : "Cylinder.004",
            "rotation" : [
                -0.5,
                0.4999999701976776,
                -0.5,
                0.5000000596046448
            ],
            "scale" : [
                0.12834399938583374,
                0.12834399938583374,
                0.12834399938583374
            ],
            "translation" : [
                0.2800000011920929,
                0.026221154257655144,
                0
            ]
        },
        {
            "mesh" : 9,
            "name" : "Cylinder.005",
            "rotation" : [
                -0.5,
                0.4999999701976776,
                -0.5,
                0.5000000596046448
            ],
            "scale" : [
                0.12834399938583374,
                0.12834399938583374,
                0.12834399938583374
            ],
            "translation" : [
                -0.25999996066093445,
                0.026221154257655144,
                0
            ]
        }
    ],
    "meshes" : [
        {
            "name" : "Cube.001",
            "primitives" : [
                {
                    "attributes" : {
                        "POSITION" : 0,
                        "NORMAL" : 1,
                        "TEXCOORD_0" : 2
                    },
                    "indices" : 3
                }
            ]
        },
        {
            "name" : "Cube.002",
            "primitives" : [
                {
                    "attributes" : {
                        "POSITION" : 4,
                        "NORMAL" : 5,
                        "TEXCOORD_0" : 6
                    },
                    "indices" : 7
                }
            ]
        },
        {
            "name" : "Cube.003",
            "primitives" : [
                {
                    "attributes" : {
                        "POSITION" : 8,
                        "NORMAL" : 9,
                        "TEXCOORD_0" : 10
                    },
                    "indices" : 11
                }
            ]
        },
        {
            "name" : "Cube.004",
            "primitives" : [
                {
                    "attributes" : {
                        "POSITION" : 12,
                        "NORMAL" : 13,
                        "TEXCOORD_0" : 14
                    },
                    "indices" : 15
                }
            ]
        },
        {
            "name" : "Cylinder",
            "primitives" : [
                {
                    "attributes" : {
                        "POSITION" : 16,
                        "NORMAL" : 17,
                        "TEXCOORD_0" : 18
                    },
                    "indices" : 19
                }
            ]
        },
        {
            "name" : "Cube.005",
            "primitives" : [
                {
                    "attributes" : {
                        "POSITION" : 20,
                        "NORMAL" : 21,
                        "TEXCOORD_0" : 22
                    },
                    "indices" : 23
                }
            ]
        },
        {
            "name" : "Cylinder.002",
            "primitives" : [
                {
                    "attributes" : {
                        "POSITION" : 24,
                        "NORMAL" : 25,
                        "TEXCOORD_0" : 26
                    },
                    "indices" : 27
                }
            ]
        },
        {
            "name" : "Cylinder.003",
            "primitives" : [
                {
                    "attributes" : {
                        "POSITION" : 28,
                        "NORMAL" : 29,
                        "TEXCOORD_0" : 30
                    },
                    "indices" : 27
                }
            ]
        },
        {
            "name" : "Cylinder.004",
            "primitives" : [
                {
                    "attributes" : {
                        "POSITION" : 31,
                        "NORMAL" : 32,
                        "TEXCOORD_0" : 33
                    },
                    "indices" : 27
                }
            ]
        },
        {
            "name" : "Cylinder.005",
            "primitives" : [
                {
                    "attributes" : {
                        "POSITION" : 34,
                        "NORMAL" : 35,
                        "TEXCOORD_0" : 36
                    },
                    "indices" : 27
                }
            ]
        }
    ],
    "accessors" : [
        {
            "bufferView" : 0,
            "componentType" : 5126,
            "count" : 136,
            "max" : [
                0.21348199248313904,
                -0.13929718732833862,
                0.28942710161209106
            ],
            "min" : [
                -0.21348199248313904,
                -0.25,
                -0.23141339421272278
            ],
            "type" : "VEC3"
        },
        {
            "bufferView" : 1,
            "componentType" : 5126,
            "count" : 136,
            "type" : "VEC3"
        },
        {
            "bufferView" : 2,
            "componentType" : 5126,
            "count" : 136,
            "type" : "VEC2"
        },
        {
            "bufferView" : 3,
            "componentType" : 5123,
            "count" : 204,
            "type" : "SCALAR"
        },
        {
            "bufferView" : 4,
            "componentType" : 5126,
            "count" : 424,
            "max" : [
                0.2714172601699829,
                6.542391777038574,
                0.6473962068557739
            ],
            "min" : [
                -0.2714172601699829,
                -0.25,
                -0.5364720225334167
            ],
            "type" : "VEC3"
        },
        {
            "bufferView" : 5,
            "componentType" : 5126,
            "count" : 424,
            "type" : "VEC3"
        },
        {
            "bufferView" : 6,
            "componentType" : 5126,
            "count" : 424,
            "type" : "VEC2"
        },
        {
            "bufferView" : 7,
            "componentType" : 5123,
            "count" : 756,
            "type" : "SCALAR"
        },
        {
            "bufferView" : 8,
            "componentType" : 5126,
            "count" : 46,
            "max" : [
                0.25,
                2.800084114074707,
                0.25
            ],
            "min" : [
                -0.25,
                -0.25,
                -0.49261778593063354
            ],
            "type" : "VEC3"
        },
        {
            "bufferView" : 9,
            "componentType" : 5126,
            "count" : 46,
            "type" : "VEC3"
        },
        {
            "bufferView" : 10,
            "componentType" : 5126,
            "count" : 46,
            "type" : "VEC2"
        },
        {
            "bufferView" : 11,
            "componentType" : 5123,
            "count" : 84,
            "type" : "SCALAR"
        },
        {
            "bufferView" : 12,
            "componentType" : 5126,
            "count" : 180,
            "max" : [
                0.2500000298023224,
                0.33157575130462646,
                1.211244821548462
            ],
            "min" : [
                -0.2500000298023224,
                -0.25,
                -0.25
            ],
            "type" : "VEC3"
        },
        {
            "bufferView" : 13,
            "componentType" : 5126,
            "count" : 180,
            "type" : "VEC3"
        },
        {
            "bufferView" : 14,
            "componentType" : 5126,
            "count" : 180,
            "type" : "VEC2"
        },
        {
            "bufferView" : 15,
            "componentType" : 5123,
            "count" : 288,
            "type" : "SCALAR"
        },
        {
            "bufferView" : 16,
            "componentType" : 5126,
            "count" : 172,
            "max" : [
                0.067081980407238,
                0.43924856185913086,
                0.067081980407238
            ],
            "min" : [
                -0.067081980407238,
                -0.1006229817867279,
                -0.067081980407238
            ],
            "type" : "VEC3"
        },
        {
            "bufferView" : 17,
            "componentType" : 5126,
            "count" : 172,
            "type" : "VEC3"
        },
        {
            "bufferView" : 18,
            "componentType" : 5126,
            "count" : 172,
            "type" : "VEC2"
        },
        {
            "bufferView" : 19,
            "componentType" : 5123,
            "count" : 276,
            "type" : "SCALAR"
        },
        {
            "bufferView" : 20,
            "componentType" : 5126,
            "count" : 80,
            "max" : [
                0.800000011920929,
                0.10000000149011612,
                0.800000011920929
            ],
            "min" : [
                -0.800000011920929,
                -0.10000000149011612,
                -0.800000011920929
            ],
            "type" : "VEC3"
        },
        {
            "bufferView" : 21,
            "componentType" : 5126,
            "count" : 80,
            "type" : "VEC3"
        },
        {
            "bufferView" : 22,
            "componentType" : 5126,
            "count" : 80,
            "type" : "VEC2"
        },
        {
            "bufferView" : 23,
            "componentType" : 5123,
            "count" : 132,
            "type" : "SCALAR"
        },
        {
            "bufferView" : 24,
            "componentType" : 5126,
            "count" : 36,
            "max" : [
                0.3464101552963257,
                0.22848248481750488,
                0.3999999761581421
            ],
            "min" : [
                -0.3464101552963257,
                -0.22848248481750488,
                -0.3999999761581421
            ],
            "type" : "VEC3"
        },
        {
            "bufferView" : 25,
            "componentType" : 5126,
            "count" : 36,
            "type" : "VEC3"
        },
        {
            "bufferView" : 26,
            "componentType" : 5126,
            "count" : 36,
            "type" : "VEC2"
        },
        {
            "bufferView" : 27,
            "componentType" : 5123,
            "count" : 60,
            "type" : "SCALAR"
        },
        {
            "bufferView" : 28,
            "componentType" : 5126,
            "count" : 36,
            "max" : [
                0.3464101552963257,
                0.22848248481750488,
                0.3999999761581421
            ],
            "min" : [
                -0.3464101552963257,
                -0.22848248481750488,
                -0.3999999761581421
            ],
            "type" : "VEC3"
        },
        {
            "bufferView" : 29,
            "componentType" : 5126,
            "count" : 36,
            "type" : "VEC3"
        },
        {
            "bufferView" : 30,
            "componentType" : 5126,
            "count" : 36,
            "type" : "VEC2"
        },
        {
            "bufferView" : 31,
            "componentType" : 5126,
            "count" : 36,
            "max" : [
                0.3464101552963257,
                0.22848248481750488,
                0.3999999761581421
            ],
            "min" : [
                -0.3464101552963257,
                -0.22848248481750488,
                -0.3999999761581421
            ],
            "type" : "VEC3"
        },
        {
            "bufferView" : 32,
            "componentType" : 5126,
            "count" : 36,
            "type" : "VEC3"
        },
        {
            "bufferView" : 33,
            "componentType" : 5126,
            "count" : 36,
            "type" : "VEC2"
        },
        {
            "bufferView" : 34,
            "componentType" : 5126,
            "count" : 36,
            "max" : [
                0.3464101552963257,
                0.22848248481750488,
                0.3999999761581421
            ],
            "min" : [
                -0.3464101552963257,
                -0.22848248481750488,
                -0.3999999761581421
            ],
            "type" : "VEC3"
        },
        {
            "bufferView" : 35,
            "componentType" : 5126,
            "count" : 36,
            "type" : "VEC3"
        },
        {
            "bufferView" : 36,
            "componentType" : 5126,
            "count" : 36,
            "type" : "VEC2"
        }
    ],
    "bufferViews" : [
        {
            "buffer" : 0,
            "byteLength" : 1632,
            "byteOffset" : 0
        },
        {
            "buffer" : 0,
            "byteLength" : 1632,
            "byteOffset" : 1632
        },
        {
            "buffer" : 0,
            "byteLength" : 1088,
            "byteOffset" : 3264
        },
        {
            "buffer" : 0,
            "byteLength" : 408,
            "byteOffset" : 4352
        },
        {
            "buffer" : 0,
            "byteLength" : 5088,
            "byteOffset" : 4760
        },
        {
            "buffer" : 0,
            "byteLength" : 5088,
            "byteOffset" : 9848
        },
        {
            "buffer" : 0,
            "byteLength" : 3392,
            "byteOffset" : 14936
        },
        {
            "buffer" : 0,
            "byteLength" : 1512,
            "byteOffset" : 18328
        },
        {
            "buffer" : 0,
            "byteLength" : 552,
            "byteOffset" : 19840
        },
        {
            "buffer" : 0,
            "byteLength" : 552,
            "byteOffset" : 20392
        },
        {
            "buffer" : 0,
            "byteLength" : 368,
            "byteOffset" : 20944
        },
        {
            "buffer" : 0,
            "byteLength" : 168,
            "byteOffset" : 21312
        },
        {
            "buffer" : 0,
            "byteLength" : 2160,
            "byteOffset" : 21480
        },
        {
            "buffer" : 0,
            "byteLength" : 2160,
            "byteOffset" : 23640
        },
        {
            "buffer" : 0,
            "byteLength" : 1440,
            "byteOffset" : 25800
        },
        {
            "buffer" : 0,
            "byteLength" : 576,
            "byteOffset" : 27240
        },
        {
            "buffer" : 0,
            "byteLength" : 2064,
            "byteOffset" : 27816
        },
        {
            "buffer" : 0,
            "byteLength" : 2064,
            "byteOffset" : 29880
        },
        {
            "buffer" : 0,
            "byteLength" : 1376,
            "byteOffset" : 31944
        },
        {
            "buffer" : 0,
            "byteLength" : 552,
            "byteOffset" : 33320
        },
        {
            "buffer" : 0,
            "byteLength" : 960,
            "byteOffset" : 33872
        },
        {
            "buffer" : 0,
            "byteLength" : 960,
            "byteOffset" : 34832
        },
        {
            "buffer" : 0,
            "byteLength" : 640,
            "byteOffset" : 35792
        },
        {
            "buffer" : 0,
            "byteLength" : 264,
            "byteOffset" : 36432
        },
        {
            "buffer" : 0,
            "byteLength" : 432,
            "byteOffset" : 36696
        },
        {
            "buffer" : 0,
            "byteLength" : 432,
            "byteOffset" : 37128
        },
        {
            "buffer" : 0,
            "byteLength" : 288,
            "byteOffset" : 37560
        },
        {
            "buffer" : 0,
            "byteLength" : 120,
            "byteOffset" : 37848
        },
        {
            "buffer" : 0,
            "byteLength" : 432,
            "byteOffset" : 37968
        },
        {
            "buffer" : 0,
            "byteLength" : 432,
            "byteOffset" : 38400
        },
        {
            "buffer" : 0,
            "byteLength" : 288,
            "byteOffset" : 38832
        },
        {
            "buffer" : 0,
            "byteLength" : 432,
            "byteOffset" : 39120
        },
        {
            "buffer" : 0,
            "byteLength" : 432,
            "byteOffset" : 39552
        },
        {
            "buffer" : 0,
            "byteLength" : 288,
            "byteOffset" : 39984
        },
        {
            "buffer" : 0,
            "byteLength" : 432,
            "byteOffset" : 40272
        },
        {
            "buffer" : 0,
            "byteLength" : 432,
            "byteOffset" : 40704
        },
        {
            "buffer" : 0,
            "byteLength" : 288,
            "byteOffset" : 41136
        }
    ],
    "buffers" : [
        {
            "byteLength" : 41424,
            "uri" : "data:application/octet-stream;base64,"
        }
    ]
}
