{
    "asset" : {
        "generator" : "Khronos glTF Blender I/O v1.5.17",
        "version" : "2.0"
    },
    "scene" : 0,
    "scenes" : [
        {
            "name" : "Scene",
            "nodes" : [
                0,
                1,
                2
            ]
        }
    ],
    "nodes" : [
        {
            "mesh" : 0,
            "name" : "Cube",
            "translation" : [
                0,
                0.2527618110179901,
                0
            ]
        },
        {
            "mesh" : 1,
            "name" : "Cube.001",
            "scale" : [
                0.06101258844137192,
                0.2726083993911743,
                0.027281075716018677
            ],
            "translation" : [
                0.053836751729249954,
                0.848949670791626,
                0.042689330875873566
            ]
        },
        {
            "mesh" : 2,
            "name" : "Cube.002",
            "scale" : [
                0.06101258844137192,
                0.2726083993911743,
                0.027281075716018677
            ],
            "translation" : [
                -0.057582173496484756,
                0.848949670791626,
                0.042689330875873566
            ]
        }
    ],
    "materials" : [
        {
            "doubleSided" : true,
            "name" : "Closet",
            "pbrMetallicRoughness" : {
                "baseColorTexture" : {
                    "index" : 0
                },
                "metallicFactor" : 0,
                "roughnessFactor" : 0.5
            }
        }
    ],
    "meshes" : [
        {
            "name" : "Cube.001",
            "primitives" : [
                {
                    "attributes" : {
                        "POSITION" : 0,
                        "NORMAL" : 1,
                        "TEXCOORD_0" : 2
                    },
                    "indices" : 3,
                    "material" : 0
                }
            ]
        },
        {
            "name" : "Cube.002",
            "primitives" : [
                {
                    "attributes" : {
                        "POSITION" : 4,
                        "NORMAL" : 5,
                        "TEXCOORD_0" : 6
                    },
                    "indices" : 7,
                    "material" : 0
                }
            ]
        },
        {
            "name" : "Cube.003",
            "primitives" : [
                {
                    "attributes" : {
                        "POSITION" : 8,
                        "NORMAL" : 9,
                        "TEXCOORD_0" : 10
                    },
                    "indices" : 7,
                    "material" : 0
                }
            ]
        }
    ],
    "textures" : [
        {
            "sampler" : 0,
            "source" : 0
        }
    ],
    "images" : [
        {
            "bufferView" : 4,
            "mimeType" : "image/png",
            "name" : "ChairV1"
        }
    ],
    "accessors" : [
        {
            "bufferView" : 0,
            "componentType" : 5126,
            "count" : 382,
            "max" : [
                0.25,
                1.447585105895996,
                0.019446052610874176
            ],
            "min" : [
                -0.25,
                -0.25,
                -0.25
            ],
            "type" : "VEC3"
        },
        {
            "bufferView" : 1,
            "componentType" : 5126,
            "count" : 382,
            "type" : "VEC3"
        },
        {
            "bufferView" : 2,
            "componentType" : 5126,
            "count" : 382,
            "type" : "VEC2"
        },
        {
            "bufferView" : 3,
            "componentType" : 5123,
            "count" : 804,
            "type" : "SCALAR"
        },
        {
            "bufferView" : 5,
            "componentType" : 5126,
            "count" : 1984,
            "max" : [
                0.2365277260541916,
                0.290748655796051,
                0.22910019755363464
            ],
            "min" : [
                -0.2365277260541916,
                -0.3110170066356659,
                -0.9524539113044739
            ],
            "type" : "VEC3"
        },
        {
            "bufferView" : 6,
            "componentType" : 5126,
            "count" : 1984,
            "type" : "VEC3"
        },
        {
            "bufferView" : 7,
            "componentType" : 5126,
            "count" : 1984,
            "type" : "VEC2"
        },
        {
            "bufferView" : 8,
            "componentType" : 5123,
            "count" : 2976,
            "type" : "SCALAR"
        },
        {
            "bufferView" : 9,
            "componentType" : 5126,
            "count" : 1984,
            "max" : [
                0.2365277260541916,
                0.290748655796051,
                0.22910019755363464
            ],
            "min" : [
                -0.2365277260541916,
                -0.3110170066356659,
                -0.9524539113044739
            ],
            "type" : "VEC3"
        },
        {
            "bufferView" : 10,
            "componentType" : 5126,
            "count" : 1984,
            "type" : "VEC3"
        },
        {
            "bufferView" : 11,
            "componentType" : 5126,
            "count" : 1984,
            "type" : "VEC2"
        }
    ],
    "bufferViews" : [
        {
            "buffer" : 0,
            "byteLength" : 4584,
            "byteOffset" : 0
        },
        {
            "buffer" : 0,
            "byteLength" : 4584,
            "byteOffset" : 4584
        },
        {
            "buffer" : 0,
            "byteLength" : 3056,
            "byteOffset" : 9168
        },
        {
            "buffer" : 0,
            "byteLength" : 1608,
            "byteOffset" : 12224
        },
        {
            "buffer" : 0,
            "byteLength" : 932533,
            "byteOffset" : 13832
        },
        {
            "buffer" : 0,
            "byteLength" : 23808,
            "byteOffset" : 946368
        },
        {
            "buffer" : 0,
            "byteLength" : 23808,
            "byteOffset" : 970176
        },
        {
            "buffer" : 0,
            "byteLength" : 15872,
            "byteOffset" : 993984
        },
        {
            "buffer" : 0,
            "byteLength" : 5952,
            "byteOffset" : 1009856
        },
        {
            "buffer" : 0,
            "byteLength" : 23808,
            "byteOffset" : 1015808
        },
        {
            "buffer" : 0,
            "byteLength" : 23808,
            "byteOffset" : 1039616
        },
        {
            "buffer" : 0,
            "byteLength" : 15872,
            "byteOffset" : 1063424
        }
    ],
    "samplers" : [
        {
            "magFilter" : 9729,
            "minFilter" : 9987
        }
    ],
    "buffers" : [
        {
            "byteLength" : 1079296,
            "uri" : "data:application/octet-stream;base64,"
        }
    ]
}
