{
    "asset" : {
        "generator" : "Khronos glTF Blender I/O v1.5.17",
        "version" : "2.0"
    },
    "scene" : 0,
    "scenes" : [
        {
            "name" : "Scene",
            "nodes" : [
                0,
                1,
                2,
                3,
                4,
                5,
                6
            ]
        }
    ],
    "nodes" : [
        {
            "name" : "Light",
            "rotation" : [
                0.16907575726509094,
                0.7558803558349609,
                -0.27217137813568115,
                0.570947527885437
            ],
            "translation" : [
                4.076245307922363,
                5.903861999511719,
                -1.0054539442062378
            ]
        },
        {
            "name" : "Camera",
            "rotation" : [
                0.483536034822464,
                0.33687159419059753,
                -0.20870360732078552,
                0.7804827094078064
            ],
            "translation" : [
                7.358891487121582,
                4.958309173583984,
                6.925790786743164
            ]
        },
        {
            "mesh" : 0,
            "name" : "Cube",
            "scale" : [
                -1,
                0.054722368717193604,
                -0.7409560680389404
            ],
            "translation" : [
                0.008024793118238449,
                0.23658263683319092,
                0.09235738217830658
            ]
        },
        {
            "mesh" : 1,
            "name" : "Cylinder",
            "rotation" : [
                -0.16873590648174286,
                -0.16873589158058167,
                0.6866791248321533,
                0.6866791844367981
            ],
            "scale" : [
                -0.029891012236475945,
                -0.029891012236475945,
                -0.029891012236475945
            ],
            "translation" : [
                0.13016389310359955,
                1.1104663610458374,
                0.24531999230384827
            ]
        },
        {
            "mesh" : 2,
            "name" : "Cylinder.001",
            "rotation" : [
                0.09517880529165268,
                0.09517879784107208,
                0.7006717920303345,
                0.7006718516349792
            ],
            "scale" : [
                -0.029891012236475945,
                -0.029891012236475945,
                -0.029891012236475945
            ],
            "translation" : [
                0.0939827635884285,
                1.1104663610458374,
                0.15890327095985413
            ]
        },
        {
            "mesh" : 3,
            "name" : "Cube.001",
            "rotation" : [
                0,
                0.11787939816713333,
                0,
                0.993027925491333
            ],
            "scale" : [
                1,
                0.23568284511566162,
                1
            ],
            "translation" : [
                -0.10721822082996368,
                1.1290616989135742,
                0.1047583743929863
            ]
        },
        {
            "mesh" : 4,
            "name" : "Cube.002",
            "rotation" : [
                0,
                -0.13022859394550323,
                0,
                0.9914839863777161
            ],
            "scale" : [
                1,
                0.23568284511566162,
                1
            ],
            "translation" : [
                0.12856078147888184,
                1.1290616989135742,
                0.03651807829737663
            ]
        }
    ],
    "materials" : [
        {
            "doubleSided" : true,
            "name" : "Material.007",
            "pbrMetallicRoughness" : {
                "baseColorTexture" : {
                    "index" : 0
                },
                "metallicFactor" : 0,
                "roughnessFactor" : 0.5
            }
        },
        {
            "doubleSided" : true,
            "name" : "ScewDriver",
            "pbrMetallicRoughness" : {
                "baseColorTexture" : {
                    "index" : 1
                },
                "metallicFactor" : 0,
                "roughnessFactor" : 0.5
            }
        },
        {
            "doubleSided" : true,
            "name" : "Material",
            "pbrMetallicRoughness" : {
                "baseColorTexture" : {
                    "index" : 2
                },
                "metallicFactor" : 0,
                "roughnessFactor" : 0.5
            }
        }
    ],
    "meshes" : [
        {
            "name" : "Cube.001",
            "primitives" : [
                {
                    "attributes" : {
                        "POSITION" : 0,
                        "NORMAL" : 1,
                        "TEXCOORD_0" : 2
                    },
                    "indices" : 3,
                    "material" : 0
                }
            ]
        },
        {
            "name" : "Cylinder.002",
            "primitives" : [
                {
                    "attributes" : {
                        "POSITION" : 4,
                        "NORMAL" : 5,
                        "TEXCOORD_0" : 6
                    },
                    "indices" : 7,
                    "material" : 1
                }
            ]
        },
        {
            "name" : "Cylinder.003",
            "primitives" : [
                {
                    "attributes" : {
                        "POSITION" : 8,
                        "NORMAL" : 9,
                        "TEXCOORD_0" : 10
                    },
                    "indices" : 7,
                    "material" : 1
                }
            ]
        },
        {
            "name" : "Cube",
            "primitives" : [
                {
                    "attributes" : {
                        "POSITION" : 11,
                        "NORMAL" : 12,
                        "TEXCOORD_0" : 13
                    },
                    "indices" : 14,
                    "material" : 2
                }
            ]
        },
        {
            "name" : "Cube.004",
            "primitives" : [
                {
                    "attributes" : {
                        "POSITION" : 15,
                        "NORMAL" : 16,
                        "TEXCOORD_0" : 17
                    },
                    "indices" : 14,
                    "material" : 2
                }
            ]
        }
    ],
    "textures" : [
        {
            "sampler" : 0,
            "source" : 0
        },
        {
            "sampler" : 0,
            "source" : 1
        },
        {
            "sampler" : 0,
            "source" : 2
        }
    ],
    "images" : [
        {
            "bufferView" : 4,
            "mimeType" : "image/png",
            "name" : "PCDeskV2"
        },
        {
            "bufferView" : 9,
            "mimeType" : "image/png",
            "name" : "ScreewDriver"
        },
        {
            "bufferView" : 17,
            "mimeType" : "image/png",
            "name" : "ServerRack"
        }
    ],
    "accessors" : [
        {
            "bufferView" : 0,
            "componentType" : 5126,
            "count" : 152,
            "max" : [
                0.25,
                15.881490707397461,
                0.25
            ],
            "min" : [
                -0.25,
                -4.29233455657959,
                -0.25
            ],
            "type" : "VEC3"
        },
        {
            "bufferView" : 1,
            "componentType" : 5126,
            "count" : 152,
            "type" : "VEC3"
        },
        {
            "bufferView" : 2,
            "componentType" : 5126,
            "count" : 152,
            "type" : "VEC2"
        },
        {
            "bufferView" : 3,
            "componentType" : 5123,
            "count" : 252,
            "type" : "SCALAR"
        },
        {
            "bufferView" : 5,
            "componentType" : 5126,
            "count" : 132,
            "max" : [
                0.20863552391529083,
                0.20000000298023224,
                0.24091152846813202
            ],
            "min" : [
                -0.20863552391529083,
                -2.2398362159729004,
                -0.24091152846813202
            ],
            "type" : "VEC3"
        },
        {
            "bufferView" : 6,
            "componentType" : 5126,
            "count" : 132,
            "type" : "VEC3"
        },
        {
            "bufferView" : 7,
            "componentType" : 5126,
            "count" : 132,
            "type" : "VEC2"
        },
        {
            "bufferView" : 8,
            "componentType" : 5123,
            "count" : 204,
            "type" : "SCALAR"
        },
        {
            "bufferView" : 10,
            "componentType" : 5126,
            "count" : 132,
            "max" : [
                0.20863552391529083,
                0.20000000298023224,
                0.24091152846813202
            ],
            "min" : [
                -0.20863552391529083,
                -2.2398362159729004,
                -0.24091152846813202
            ],
            "type" : "VEC3"
        },
        {
            "bufferView" : 11,
            "componentType" : 5126,
            "count" : 132,
            "type" : "VEC3"
        },
        {
            "bufferView" : 12,
            "componentType" : 5126,
            "count" : 132,
            "type" : "VEC2"
        },
        {
            "bufferView" : 13,
            "componentType" : 5126,
            "count" : 24,
            "max" : [
                0.10000000149011612,
                0.10000000149011612,
                0.10000000149011612
            ],
            "min" : [
                -0.10000000149011612,
                -0.10000000149011612,
                -0.10000000149011612
            ],
            "type" : "VEC3"
        },
        {
            "bufferView" : 14,
            "componentType" : 5126,
            "count" : 24,
            "type" : "VEC3"
        },
        {
            "bufferView" : 15,
            "componentType" : 5126,
            "count" : 24,
            "type" : "VEC2"
        },
        {
            "bufferView" : 16,
            "componentType" : 5123,
            "count" : 36,
            "type" : "SCALAR"
        },
        {
            "bufferView" : 18,
            "componentType" : 5126,
            "count" : 24,
            "max" : [
                0.10000000149011612,
                0.10000000149011612,
                0.10000000149011612
            ],
            "min" : [
                -0.10000000149011612,
                -0.10000000149011612,
                -0.10000000149011612
            ],
            "type" : "VEC3"
        },
        {
            "bufferView" : 19,
            "componentType" : 5126,
            "count" : 24,
            "type" : "VEC3"
        },
        {
            "bufferView" : 20,
            "componentType" : 5126,
            "count" : 24,
            "type" : "VEC2"
        }
    ],
    "bufferViews" : [
        {
            "buffer" : 0,
            "byteLength" : 1824,
            "byteOffset" : 0
        },
        {
            "buffer" : 0,
            "byteLength" : 1824,
            "byteOffset" : 1824
        },
        {
            "buffer" : 0,
            "byteLength" : 1216,
            "byteOffset" : 3648
        },
        {
            "buffer" : 0,
            "byteLength" : 504,
            "byteOffset" : 4864
        },
        {
            "buffer" : 0,
            "byteLength" : 417519,
            "byteOffset" : 5368
        },
        {
            "buffer" : 0,
            "byteLength" : 1584,
            "byteOffset" : 422888
        },
        {
            "buffer" : 0,
            "byteLength" : 1584,
            "byteOffset" : 424472
        },
        {
            "buffer" : 0,
            "byteLength" : 1056,
            "byteOffset" : 426056
        },
        {
            "buffer" : 0,
            "byteLength" : 408,
            "byteOffset" : 427112
        },
        {
            "buffer" : 0,
            "byteLength" : 190,
            "byteOffset" : 427520
        },
        {
            "buffer" : 0,
            "byteLength" : 1584,
            "byteOffset" : 427712
        },
        {
            "buffer" : 0,
            "byteLength" : 1584,
            "byteOffset" : 429296
        },
        {
            "buffer" : 0,
            "byteLength" : 1056,
            "byteOffset" : 430880
        },
        {
            "buffer" : 0,
            "byteLength" : 288,
            "byteOffset" : 431936
        },
        {
            "buffer" : 0,
            "byteLength" : 288,
            "byteOffset" : 432224
        },
        {
            "buffer" : 0,
            "byteLength" : 192,
            "byteOffset" : 432512
        },
        {
            "buffer" : 0,
            "byteLength" : 72,
            "byteOffset" : 432704
        },
        {
            "buffer" : 0,
            "byteLength" : 145843,
            "byteOffset" : 432776
        },
        {
            "buffer" : 0,
            "byteLength" : 288,
            "byteOffset" : 578620
        },
        {
            "buffer" : 0,
            "byteLength" : 288,
            "byteOffset" : 578908
        },
        {
            "buffer" : 0,
            "byteLength" : 192,
            "byteOffset" : 579196
        }
    ],
    "samplers" : [
        {
            "magFilter" : 9729,
            "minFilter" : 9987
        }
    ],
    "buffers" : [
        {
            "byteLength" : 579388,
            "uri" : "data:application/octet-stream;base64,"
        }
    ]
}
