{
    "asset" : {
        "generator" : "Khronos glTF Blender I/O v1.5.17",
        "version" : "2.0"
    },
    "scene" : 0,
    "scenes" : [
        {
            "name" : "Scene",
            "nodes" : [
                0,
                1,
                2,
                3,
                4,
                5,
                6,
                7,
                8,
                9,
                10
            ]
        }
    ],
    "nodes" : [
        {
            "name" : "Light",
            "rotation" : [
                0.16907575726509094,
                0.7558803558349609,
                -0.27217137813568115,
                0.570947527885437
            ],
            "translation" : [
                4.076245307922363,
                5.903861999511719,
                -1.0054539442062378
            ]
        },
        {
            "name" : "Camera",
            "rotation" : [
                0.483536034822464,
                0.33687159419059753,
                -0.20870360732078552,
                0.7804827094078064
            ],
            "translation" : [
                7.358891487121582,
                4.958309173583984,
                6.925790786743164
            ]
        },
        {
            "mesh" : 0,
            "name" : "Cube",
            "scale" : [
                1,
                0.054722368717193604,
                0.7409560680389404
            ],
            "translation" : [
                0,
                0.23658262193202972,
                0
            ]
        },
        {
            "mesh" : 1,
            "name" : "Cube.002",
            "scale" : [
                0.19255566596984863,
                0.28357693552970886,
                0.3931396007537842
            ],
            "translation" : [
                -0.17499540746212006,
                0.5093616247177124,
                0
            ]
        },
        {
            "mesh" : 2,
            "name" : "Cylinder",
            "rotation" : [
                0,
                0.09606216102838516,
                0,
                0.9953753352165222
            ],
            "translation" : [
                0.15027853846549988,
                0.4389944076538086,
                0.05227941647171974
            ]
        },
        {
            "mesh" : 3,
            "name" : "Cube.001",
            "rotation" : [
                0,
                0.09606216102838516,
                0,
                0.9953753352165222
            ],
            "scale" : [
                0.5029264092445374,
                0.5029264092445374,
                0.11758910864591599
            ],
            "translation" : [
                0.14903494715690613,
                0.4698407053947449,
                0.052521705627441406
            ]
        },
        {
            "mesh" : 4,
            "name" : "Cube.003",
            "rotation" : [
                0,
                0.09606216102838516,
                0,
                0.9953753352165222
            ],
            "scale" : [
                1.4003360271453857,
                0.5029264092445374,
                0.11758910119533539
            ],
            "translation" : [
                0.1471969485282898,
                0.5030764937400818,
                0.04308793321251869
            ]
        },
        {
            "mesh" : 5,
            "name" : "Cylinder.001",
            "rotation" : [
                0,
                -0.11505832523107529,
                0,
                0.9933587312698364
            ],
            "translation" : [
                -0.011937958188354969,
                0.4389944076538086,
                0.052608322352170944
            ]
        },
        {
            "mesh" : 6,
            "name" : "Cube.004",
            "rotation" : [
                0,
                -0.11505832523107529,
                0,
                0.9933587312698364
            ],
            "scale" : [
                0.5029264092445374,
                0.5029264092445374,
                0.11758910864591599
            ],
            "translation" : [
                -0.013171384111046791,
                0.4698407053947449,
                0.05231870710849762
            ]
        },
        {
            "mesh" : 7,
            "name" : "Cube.005",
            "rotation" : [
                0,
                -0.11505832523107529,
                0,
                0.9933587312698364
            ],
            "scale" : [
                1.4003360271453857,
                0.5029264092445374,
                0.11758910119533539
            ],
            "translation" : [
                -0.010974385775625706,
                0.5030764937400818,
                0.042962025851011276
            ]
        },
        {
            "mesh" : 8,
            "name" : "Cube.006",
            "scale" : [
                1.7478439807891846,
                0.06071394681930542,
                0.6172316670417786
            ],
            "translation" : [
                0.09249046444892883,
                0.4409266710281372,
                -0.06394236534833908
            ]
        }
    ],
    "materials" : [
        {
            "doubleSided" : true,
            "name" : "Material.007",
            "pbrMetallicRoughness" : {
                "baseColorTexture" : {
                    "index" : 0
                },
                "metallicFactor" : 0,
                "roughnessFactor" : 0.5
            }
        },
        {
            "doubleSided" : true,
            "name" : "Material.004",
            "pbrMetallicRoughness" : {
                "baseColorTexture" : {
                    "index" : 1
                },
                "metallicFactor" : 0,
                "roughnessFactor" : 0.5
            }
        },
        {
            "doubleSided" : true,
            "name" : "Material.003",
            "pbrMetallicRoughness" : {
                "baseColorTexture" : {
                    "index" : 2
                },
                "metallicFactor" : 0,
                "roughnessFactor" : 0.5
            }
        },
        {
            "doubleSided" : true,
            "name" : "Material.002",
            "pbrMetallicRoughness" : {
                "baseColorTexture" : {
                    "index" : 3
                },
                "metallicFactor" : 0,
                "roughnessFactor" : 0.5
            }
        },
        {
            "doubleSided" : true,
            "name" : "Material.001",
            "pbrMetallicRoughness" : {
                "baseColorTexture" : {
                    "index" : 4
                },
                "metallicFactor" : 0,
                "roughnessFactor" : 0.5
            }
        },
        {
            "doubleSided" : true,
            "name" : "Material.006",
            "normalTexture" : {
                "index" : 5,
                "scale" : 0.5
            },
            "pbrMetallicRoughness" : {
                "baseColorTexture" : {
                    "index" : 6
                },
                "metallicFactor" : 0,
                "roughnessFactor" : 0.5
            }
        }
    ],
    "meshes" : [
        {
            "name" : "Cube.001",
            "primitives" : [
                {
                    "attributes" : {
                        "POSITION" : 0,
                        "NORMAL" : 1,
                        "TEXCOORD_0" : 2
                    },
                    "indices" : 3,
                    "material" : 0
                }
            ]
        },
        {
            "name" : "Cube.003",
            "primitives" : [
                {
                    "attributes" : {
                        "POSITION" : 4,
                        "NORMAL" : 5,
                        "TEXCOORD_0" : 6
                    },
                    "indices" : 7,
                    "material" : 1
                }
            ]
        },
        {
            "name" : "Cylinder",
            "primitives" : [
                {
                    "attributes" : {
                        "POSITION" : 8,
                        "NORMAL" : 9,
                        "TEXCOORD_0" : 10
                    },
                    "indices" : 11,
                    "material" : 2
                }
            ]
        },
        {
            "name" : "Cube.004",
            "primitives" : [
                {
                    "attributes" : {
                        "POSITION" : 12,
                        "NORMAL" : 13,
                        "TEXCOORD_0" : 14
                    },
                    "indices" : 15,
                    "material" : 3
                }
            ]
        },
        {
            "name" : "Cube.005",
            "primitives" : [
                {
                    "attributes" : {
                        "POSITION" : 16,
                        "NORMAL" : 17,
                        "TEXCOORD_0" : 18
                    },
                    "indices" : 19,
                    "material" : 4
                }
            ]
        },
        {
            "name" : "Cylinder.001",
            "primitives" : [
                {
                    "attributes" : {
                        "POSITION" : 20,
                        "NORMAL" : 21,
                        "TEXCOORD_0" : 22
                    },
                    "indices" : 11,
                    "material" : 2
                }
            ]
        },
        {
            "name" : "Cube.006",
            "primitives" : [
                {
                    "attributes" : {
                        "POSITION" : 23,
                        "NORMAL" : 24,
                        "TEXCOORD_0" : 25
                    },
                    "indices" : 15,
                    "material" : 3
                }
            ]
        },
        {
            "name" : "Cube.007",
            "primitives" : [
                {
                    "attributes" : {
                        "POSITION" : 26,
                        "NORMAL" : 27,
                        "TEXCOORD_0" : 28
                    },
                    "indices" : 19,
                    "material" : 4
                }
            ]
        },
        {
            "name" : "Cube.008",
            "primitives" : [
                {
                    "attributes" : {
                        "POSITION" : 29,
                        "NORMAL" : 30,
                        "TEXCOORD_0" : 31
                    },
                    "indices" : 15,
                    "material" : 5
                }
            ]
        }
    ],
    "textures" : [
        {
            "sampler" : 0,
            "source" : 0
        },
        {
            "sampler" : 0,
            "source" : 1
        },
        {
            "sampler" : 0,
            "source" : 1
        },
        {
            "sampler" : 0,
            "source" : 1
        },
        {
            "sampler" : 0,
            "source" : 1
        },
        {
            "sampler" : 0,
            "source" : 2
        },
        {
            "sampler" : 0,
            "source" : 3
        }
    ],
    "images" : [
        {
            "bufferView" : 4,
            "mimeType" : "image/png",
            "name" : "PCDeskV1"
        },
        {
            "bufferView" : 9,
            "mimeType" : "image/png",
            "name" : "ComputerTextureV1"
        },
        {
            "bufferView" : 34,
            "mimeType" : "image/jpeg",
            "name" : "YellowPlastic"
        },
        {
            "bufferView" : 35,
            "mimeType" : "image/png",
            "name" : "Keyboard"
        }
    ],
    "accessors" : [
        {
            "bufferView" : 0,
            "componentType" : 5126,
            "count" : 144,
            "max" : [
                0.25,
                3.696899890899658,
                0.25
            ],
            "min" : [
                -0.25,
                -4.29233455657959,
                -0.25
            ],
            "type" : "VEC3"
        },
        {
            "bufferView" : 1,
            "componentType" : 5126,
            "count" : 144,
            "type" : "VEC3"
        },
        {
            "bufferView" : 2,
            "componentType" : 5126,
            "count" : 144,
            "type" : "VEC2"
        },
        {
            "bufferView" : 3,
            "componentType" : 5123,
            "count" : 252,
            "type" : "SCALAR"
        },
        {
            "bufferView" : 5,
            "componentType" : 5126,
            "count" : 174,
            "max" : [
                0.25,
                0.25,
                0.25
            ],
            "min" : [
                -0.25,
                -0.25,
                -0.25
            ],
            "type" : "VEC3"
        },
        {
            "bufferView" : 6,
            "componentType" : 5126,
            "count" : 174,
            "type" : "VEC3"
        },
        {
            "bufferView" : 7,
            "componentType" : 5126,
            "count" : 174,
            "type" : "VEC2"
        },
        {
            "bufferView" : 8,
            "componentType" : 5123,
            "count" : 288,
            "type" : "SCALAR"
        },
        {
            "bufferView" : 10,
            "componentType" : 5126,
            "count" : 60,
            "max" : [
                0.04755282774567604,
                0.009999999776482582,
                0.05000000074505806
            ],
            "min" : [
                -0.04755282402038574,
                -0.009999999776482582,
                -0.05000000074505806
            ],
            "type" : "VEC3"
        },
        {
            "bufferView" : 11,
            "componentType" : 5126,
            "count" : 60,
            "type" : "VEC3"
        },
        {
            "bufferView" : 12,
            "componentType" : 5126,
            "count" : 60,
            "type" : "VEC2"
        },
        {
            "bufferView" : 13,
            "componentType" : 5123,
            "count" : 108,
            "type" : "SCALAR"
        },
        {
            "bufferView" : 14,
            "componentType" : 5126,
            "count" : 24,
            "max" : [
                0.05000000074505806,
                0.09834814816713333,
                0.05000000074505806
            ],
            "min" : [
                -0.05000000074505806,
                -0.05000000074505806,
                -0.05000000074505806
            ],
            "type" : "VEC3"
        },
        {
            "bufferView" : 15,
            "componentType" : 5126,
            "count" : 24,
            "type" : "VEC3"
        },
        {
            "bufferView" : 16,
            "componentType" : 5126,
            "count" : 24,
            "type" : "VEC2"
        },
        {
            "bufferView" : 17,
            "componentType" : 5123,
            "count" : 36,
            "type" : "SCALAR"
        },
        {
            "bufferView" : 18,
            "componentType" : 5126,
            "count" : 129,
            "max" : [
                0.05000000074505806,
                0.09834814816713333,
                0.05000000074505806
            ],
            "min" : [
                -0.05000000074505806,
                -0.05000000074505806,
                -0.05000000074505806
            ],
            "type" : "VEC3"
        },
        {
            "bufferView" : 19,
            "componentType" : 5126,
            "count" : 129,
            "type" : "VEC3"
        },
        {
            "bufferView" : 20,
            "componentType" : 5126,
            "count" : 129,
            "type" : "VEC2"
        },
        {
            "bufferView" : 21,
            "componentType" : 5123,
            "count" : 204,
            "type" : "SCALAR"
        },
        {
            "bufferView" : 22,
            "componentType" : 5126,
            "count" : 60,
            "max" : [
                0.04755282774567604,
                0.009999999776482582,
                0.05000000074505806
            ],
            "min" : [
                -0.04755282402038574,
                -0.009999999776482582,
                -0.05000000074505806
            ],
            "type" : "VEC3"
        },
        {
            "bufferView" : 23,
            "componentType" : 5126,
            "count" : 60,
            "type" : "VEC3"
        },
        {
            "bufferView" : 24,
            "componentType" : 5126,
            "count" : 60,
            "type" : "VEC2"
        },
        {
            "bufferView" : 25,
            "componentType" : 5126,
            "count" : 24,
            "max" : [
                0.05000000074505806,
                0.09834814816713333,
                0.05000000074505806
            ],
            "min" : [
                -0.05000000074505806,
                -0.05000000074505806,
                -0.05000000074505806
            ],
            "type" : "VEC3"
        },
        {
            "bufferView" : 26,
            "componentType" : 5126,
            "count" : 24,
            "type" : "VEC3"
        },
        {
            "bufferView" : 27,
            "componentType" : 5126,
            "count" : 24,
            "type" : "VEC2"
        },
        {
            "bufferView" : 28,
            "componentType" : 5126,
            "count" : 129,
            "max" : [
                0.05000000074505806,
                0.09834814816713333,
                0.05000000074505806
            ],
            "min" : [
                -0.05000000074505806,
                -0.05000000074505806,
                -0.05000000074505806
            ],
            "type" : "VEC3"
        },
        {
            "bufferView" : 29,
            "componentType" : 5126,
            "count" : 129,
            "type" : "VEC3"
        },
        {
            "bufferView" : 30,
            "componentType" : 5126,
            "count" : 129,
            "type" : "VEC2"
        },
        {
            "bufferView" : 31,
            "componentType" : 5126,
            "count" : 24,
            "max" : [
                0.05000000074505806,
                0.08986497670412064,
                0.05000000074505806
            ],
            "min" : [
                -0.05000000074505806,
                -0.05000000074505806,
                -0.05000000074505806
            ],
            "type" : "VEC3"
        },
        {
            "bufferView" : 32,
            "componentType" : 5126,
            "count" : 24,
            "type" : "VEC3"
        },
        {
            "bufferView" : 33,
            "componentType" : 5126,
            "count" : 24,
            "type" : "VEC2"
        }
    ],
    "bufferViews" : [
        {
            "buffer" : 0,
            "byteLength" : 1728,
            "byteOffset" : 0
        },
        {
            "buffer" : 0,
            "byteLength" : 1728,
            "byteOffset" : 1728
        },
        {
            "buffer" : 0,
            "byteLength" : 1152,
            "byteOffset" : 3456
        },
        {
            "buffer" : 0,
            "byteLength" : 504,
            "byteOffset" : 4608
        },
        {
            "buffer" : 0,
            "byteLength" : 428886,
            "byteOffset" : 5112
        },
        {
            "buffer" : 0,
            "byteLength" : 2088,
            "byteOffset" : 434000
        },
        {
            "buffer" : 0,
            "byteLength" : 2088,
            "byteOffset" : 436088
        },
        {
            "buffer" : 0,
            "byteLength" : 1392,
            "byteOffset" : 438176
        },
        {
            "buffer" : 0,
            "byteLength" : 576,
            "byteOffset" : 439568
        },
        {
            "buffer" : 0,
            "byteLength" : 1229954,
            "byteOffset" : 440144
        },
        {
            "buffer" : 0,
            "byteLength" : 720,
            "byteOffset" : 1670100
        },
        {
            "buffer" : 0,
            "byteLength" : 720,
            "byteOffset" : 1670820
        },
        {
            "buffer" : 0,
            "byteLength" : 480,
            "byteOffset" : 1671540
        },
        {
            "buffer" : 0,
            "byteLength" : 216,
            "byteOffset" : 1672020
        },
        {
            "buffer" : 0,
            "byteLength" : 288,
            "byteOffset" : 1672236
        },
        {
            "buffer" : 0,
            "byteLength" : 288,
            "byteOffset" : 1672524
        },
        {
            "buffer" : 0,
            "byteLength" : 192,
            "byteOffset" : 1672812
        },
        {
            "buffer" : 0,
            "byteLength" : 72,
            "byteOffset" : 1673004
        },
        {
            "buffer" : 0,
            "byteLength" : 1548,
            "byteOffset" : 1673076
        },
        {
            "buffer" : 0,
            "byteLength" : 1548,
            "byteOffset" : 1674624
        },
        {
            "buffer" : 0,
            "byteLength" : 1032,
            "byteOffset" : 1676172
        },
        {
            "buffer" : 0,
            "byteLength" : 408,
            "byteOffset" : 1677204
        },
        {
            "buffer" : 0,
            "byteLength" : 720,
            "byteOffset" : 1677612
        },
        {
            "buffer" : 0,
            "byteLength" : 720,
            "byteOffset" : 1678332
        },
        {
            "buffer" : 0,
            "byteLength" : 480,
            "byteOffset" : 1679052
        },
        {
            "buffer" : 0,
            "byteLength" : 288,
            "byteOffset" : 1679532
        },
        {
            "buffer" : 0,
            "byteLength" : 288,
            "byteOffset" : 1679820
        },
        {
            "buffer" : 0,
            "byteLength" : 192,
            "byteOffset" : 1680108
        },
        {
            "buffer" : 0,
            "byteLength" : 1548,
            "byteOffset" : 1680300
        },
        {
            "buffer" : 0,
            "byteLength" : 1548,
            "byteOffset" : 1681848
        },
        {
            "buffer" : 0,
            "byteLength" : 1032,
            "byteOffset" : 1683396
        },
        {
            "buffer" : 0,
            "byteLength" : 288,
            "byteOffset" : 1684428
        },
        {
            "buffer" : 0,
            "byteLength" : 288,
            "byteOffset" : 1684716
        },
        {
            "buffer" : 0,
            "byteLength" : 192,
            "byteOffset" : 1685004
        },
        {
            "buffer" : 0,
            "byteLength" : 346763,
            "byteOffset" : 1685196
        },
        {
            "buffer" : 0,
            "byteLength" : 245946,
            "byteOffset" : 2031960
        }
    ],
    "samplers" : [
        {
            "magFilter" : 9729,
            "minFilter" : 9987
        }
    ],
    "buffers" : [
        {
            "byteLength" : 2277908,
            "uri" : "data:application/octet-stream;base64,"
        }
    ]
}
