{
    "asset" : {
        "generator" : "Khronos glTF Blender I/O v1.5.17",
        "version" : "2.0"
    },
    "scene" : 0,
    "scenes" : [
        {
            "name" : "Scene",
            "nodes" : [
                0,
                1,
                2,
                3
            ]
        }
    ],
    "nodes" : [
        {
            "mesh" : 0,
            "name" : "Cube",
            "translation" : [
                0,
                0.2527618408203125,
                0
            ]
        },
        {
            "mesh" : 1,
            "name" : "Cube.002",
            "rotation" : [
                0.6755902171134949,
                0,
                0,
                0.7372773885726929
            ],
            "scale" : [
                0.493397057056427,
                -0.11918541043996811,
                0.19316333532333374
            ],
            "translation" : [
                0,
                1.5276206731796265,
                0.15688413381576538
            ]
        },
        {
            "mesh" : 2,
            "name" : "Cube.003",
            "rotation" : [
                0,
                0.7071067690849304,
                0,
                0.7071068286895752
            ],
            "scale" : [
                0.13465368747711182,
                0.6144196391105652,
                0.1352371871471405
            ],
            "translation" : [
                0.28516799211502075,
                1.5746742486953735,
                -0.0009496435523033142
            ]
        },
        {
            "mesh" : 3,
            "name" : "Cube.004",
            "rotation" : [
                0,
                -0.6755902171134949,
                0,
                0.7372773885726929
            ],
            "scale" : [
                0.12824158370494843,
                0.585161566734314,
                0.12879732251167297
            ],
            "translation" : [
                -0.28699445724487305,
                1.5746742486953735,
                -0.0009496435523033142
            ]
        }
    ],
    "meshes" : [
        {
            "name" : "Cube.001",
            "primitives" : [
                {
                    "attributes" : {
                        "POSITION" : 0,
                        "NORMAL" : 1,
                        "TEXCOORD_0" : 2
                    },
                    "indices" : 3
                }
            ]
        },
        {
            "name" : "Cube.003",
            "primitives" : [
                {
                    "attributes" : {
                        "POSITION" : 4,
                        "NORMAL" : 5,
                        "TEXCOORD_0" : 6
                    },
                    "indices" : 7
                }
            ]
        },
        {
            "name" : "Cube.004",
            "primitives" : [
                {
                    "attributes" : {
                        "POSITION" : 8,
                        "NORMAL" : 9,
                        "TEXCOORD_0" : 10
                    },
                    "indices" : 11
                }
            ]
        },
        {
            "name" : "Cube.005",
            "primitives" : [
                {
                    "attributes" : {
                        "POSITION" : 12,
                        "NORMAL" : 13,
                        "TEXCOORD_0" : 14
                    },
                    "indices" : 11
                }
            ]
        }
    ],
    "accessors" : [
        {
            "bufferView" : 0,
            "componentType" : 5126,
            "count" : 105,
            "max" : [
                0.25,
                1.4725449085235596,
                0.25
            ],
            "min" : [
                -0.25,
                -0.25,
                -0.25
            ],
            "type" : "VEC3"
        },
        {
            "bufferView" : 1,
            "componentType" : 5126,
            "count" : 105,
            "type" : "VEC3"
        },
        {
            "bufferView" : 2,
            "componentType" : 5126,
            "count" : 105,
            "type" : "VEC2"
        },
        {
            "bufferView" : 3,
            "componentType" : 5123,
            "count" : 180,
            "type" : "SCALAR"
        },
        {
            "bufferView" : 4,
            "componentType" : 5126,
            "count" : 414,
            "max" : [
                0.2764720320701599,
                0.25,
                0.25
            ],
            "min" : [
                -0.2764720320701599,
                -0.25,
                -1.0820045471191406
            ],
            "type" : "VEC3"
        },
        {
            "bufferView" : 5,
            "componentType" : 5126,
            "count" : 414,
            "type" : "VEC3"
        },
        {
            "bufferView" : 6,
            "componentType" : 5126,
            "count" : 414,
            "type" : "VEC2"
        },
        {
            "bufferView" : 7,
            "componentType" : 5123,
            "count" : 750,
            "type" : "SCALAR"
        },
        {
            "bufferView" : 8,
            "componentType" : 5126,
            "count" : 1036,
            "max" : [
                0.48840489983558655,
                0.5196870565414429,
                0.25
            ],
            "min" : [
                -0.4884053170681,
                -0.25,
                -1.1107351779937744
            ],
            "type" : "VEC3"
        },
        {
            "bufferView" : 9,
            "componentType" : 5126,
            "count" : 1036,
            "type" : "VEC3"
        },
        {
            "bufferView" : 10,
            "componentType" : 5126,
            "count" : 1036,
            "type" : "VEC2"
        },
        {
            "bufferView" : 11,
            "componentType" : 5123,
            "count" : 1560,
            "type" : "SCALAR"
        },
        {
            "bufferView" : 12,
            "componentType" : 5126,
            "count" : 1036,
            "max" : [
                0.48840489983558655,
                0.5196870565414429,
                0.25
            ],
            "min" : [
                -0.4884053170681,
                -0.25,
                -1.1107351779937744
            ],
            "type" : "VEC3"
        },
        {
            "bufferView" : 13,
            "componentType" : 5126,
            "count" : 1036,
            "type" : "VEC3"
        },
        {
            "bufferView" : 14,
            "componentType" : 5126,
            "count" : 1036,
            "type" : "VEC2"
        }
    ],
    "bufferViews" : [
        {
            "buffer" : 0,
            "byteLength" : 1260,
            "byteOffset" : 0
        },
        {
            "buffer" : 0,
            "byteLength" : 1260,
            "byteOffset" : 1260
        },
        {
            "buffer" : 0,
            "byteLength" : 840,
            "byteOffset" : 2520
        },
        {
            "buffer" : 0,
            "byteLength" : 360,
            "byteOffset" : 3360
        },
        {
            "buffer" : 0,
            "byteLength" : 4968,
            "byteOffset" : 3720
        },
        {
            "buffer" : 0,
            "byteLength" : 4968,
            "byteOffset" : 8688
        },
        {
            "buffer" : 0,
            "byteLength" : 3312,
            "byteOffset" : 13656
        },
        {
            "buffer" : 0,
            "byteLength" : 1500,
            "byteOffset" : 16968
        },
        {
            "buffer" : 0,
            "byteLength" : 12432,
            "byteOffset" : 18468
        },
        {
            "buffer" : 0,
            "byteLength" : 12432,
            "byteOffset" : 30900
        },
        {
            "buffer" : 0,
            "byteLength" : 8288,
            "byteOffset" : 43332
        },
        {
            "buffer" : 0,
            "byteLength" : 3120,
            "byteOffset" : 51620
        },
        {
            "buffer" : 0,
            "byteLength" : 12432,
            "byteOffset" : 54740
        },
        {
            "buffer" : 0,
            "byteLength" : 12432,
            "byteOffset" : 67172
        },
        {
            "buffer" : 0,
            "byteLength" : 8288,
            "byteOffset" : 79604
        }
    ],
    "buffers" : [
        {
            "byteLength" : 87892,
            "uri" : "data:application/octet-stream;base64,"
        }
    ]
}
