{
    "asset" : {
        "generator" : "Khronos glTF Blender I/O v1.5.17",
        "version" : "2.0"
    },
    "scene" : 0,
    "scenes" : [
        {
            "name" : "Scene",
            "nodes" : [
                0,
                1,
                2,
                3,
                4,
                5,
                6,
                7,
                8,
                9,
                10
            ]
        }
    ],
    "nodes" : [
        {
            "name" : "Light",
            "rotation" : [
                0.16907575726509094,
                0.7558803558349609,
                -0.27217137813568115,
                0.570947527885437
            ],
            "translation" : [
                4.076245307922363,
                5.903861999511719,
                -1.0054539442062378
            ]
        },
        {
            "name" : "Camera",
            "rotation" : [
                0.483536034822464,
                0.33687159419059753,
                -0.20870360732078552,
                0.7804827094078064
            ],
            "translation" : [
                7.358891487121582,
                4.958309173583984,
                6.925790786743164
            ]
        },
        {
            "mesh" : 0,
            "name" : "Cube",
            "scale" : [
                0.28915250301361084,
                -0.2406618595123291,
                0.739892303943634
            ],
            "translation" : [
                0,
                0.20095829665660858,
                0
            ]
        },
        {
            "mesh" : 1,
            "name" : "Cube.002",
            "rotation" : [
                -0.21390509605407715,
                0,
                0,
                -0.9768544435501099
            ],
            "scale" : [
                0.06661579757928848,
                0.17940829694271088,
                0.062112241983413696
            ],
            "translation" : [
                0.08768213540315628,
                0.20095829665660858,
                0.1318722814321518
            ]
        },
        {
            "mesh" : 2,
            "name" : "Cube.003",
            "rotation" : [
                -0.3734895884990692,
                0,
                0,
                0.9276343584060669
            ],
            "scale" : [
                0.05251919478178024,
                0.256019651889801,
                0.03992118686437607
            ],
            "translation" : [
                0.08937311917543411,
                0.061834052205085754,
                0.1272435337305069
            ]
        },
        {
            "mesh" : 3,
            "name" : "Cube.004",
            "rotation" : [
                -0.21390509605407715,
                0,
                0,
                -0.9768544435501099
            ],
            "scale" : [
                -0.06661579757928848,
                0.17940829694271088,
                0.062112241983413696
            ],
            "translation" : [
                -0.08661001920700073,
                0.20095829665660858,
                0.1318722814321518
            ]
        },
        {
            "mesh" : 4,
            "name" : "Cube.005",
            "rotation" : [
                -0.3734895884990692,
                0,
                0,
                0.9276343584060669
            ],
            "scale" : [
                -0.05251919478178024,
                0.256019651889801,
                0.03992118686437607
            ],
            "translation" : [
                -0.08830100297927856,
                0.061834052205085754,
                0.1272435337305069
            ]
        },
        {
            "mesh" : 5,
            "name" : "Cube.006",
            "rotation" : [
                -0.21390509605407715,
                0,
                0,
                -0.9768544435501099
            ],
            "scale" : [
                0.06661579757928848,
                0.17940829694271088,
                0.062112241983413696
            ],
            "translation" : [
                0.08768213540315628,
                0.20095829665660858,
                -0.1426665484905243
            ]
        },
        {
            "mesh" : 6,
            "name" : "Cube.007",
            "rotation" : [
                -0.3734895884990692,
                0,
                0,
                0.9276343584060669
            ],
            "scale" : [
                0.05251919478178024,
                0.256019651889801,
                0.03992118686437607
            ],
            "translation" : [
                0.08937311917543411,
                0.061834052205085754,
                -0.1472952961921692
            ]
        },
        {
            "mesh" : 7,
            "name" : "Cube.008",
            "rotation" : [
                -0.21390509605407715,
                0,
                0,
                -0.9768544435501099
            ],
            "scale" : [
                -0.06661579757928848,
                0.17940829694271088,
                0.062112241983413696
            ],
            "translation" : [
                -0.08661001920700073,
                0.20095829665660858,
                -0.1426665484905243
            ]
        },
        {
            "mesh" : 8,
            "name" : "Cube.009",
            "rotation" : [
                -0.3734895884990692,
                0,
                0,
                0.9276343584060669
            ],
            "scale" : [
                -0.05251919478178024,
                0.256019651889801,
                0.03992118686437607
            ],
            "translation" : [
                -0.08830100297927856,
                0.061834052205085754,
                -0.1472952961921692
            ]
        }
    ],
    "materials" : [
        {
            "doubleSided" : true,
            "name" : "Material.003",
            "pbrMetallicRoughness" : {
                "baseColorTexture" : {
                    "index" : 0
                },
                "metallicFactor" : 0,
                "roughnessFactor" : 0.5
            }
        },
        {
            "doubleSided" : true,
            "name" : "Material.002",
            "pbrMetallicRoughness" : {
                "baseColorTexture" : {
                    "index" : 1
                },
                "metallicFactor" : 0,
                "roughnessFactor" : 0.5
            }
        },
        {
            "doubleSided" : true,
            "name" : "Material.001",
            "pbrMetallicRoughness" : {
                "baseColorTexture" : {
                    "index" : 2
                },
                "metallicFactor" : 0,
                "roughnessFactor" : 0.5
            }
        }
    ],
    "meshes" : [
        {
            "name" : "Cube.002",
            "primitives" : [
                {
                    "attributes" : {
                        "POSITION" : 0,
                        "NORMAL" : 1,
                        "TEXCOORD_0" : 2
                    },
                    "indices" : 3,
                    "material" : 0
                }
            ]
        },
        {
            "name" : "Cube.004",
            "primitives" : [
                {
                    "attributes" : {
                        "POSITION" : 4,
                        "NORMAL" : 5,
                        "TEXCOORD_0" : 6
                    },
                    "indices" : 7,
                    "material" : 1
                }
            ]
        },
        {
            "name" : "Cube.005",
            "primitives" : [
                {
                    "attributes" : {
                        "POSITION" : 8,
                        "NORMAL" : 9,
                        "TEXCOORD_0" : 10
                    },
                    "indices" : 11,
                    "material" : 2
                }
            ]
        },
        {
            "name" : "Cube.008",
            "primitives" : [
                {
                    "attributes" : {
                        "POSITION" : 12,
                        "NORMAL" : 13,
                        "TEXCOORD_0" : 14
                    },
                    "indices" : 7,
                    "material" : 1
                }
            ]
        },
        {
            "name" : "Cube.009",
            "primitives" : [
                {
                    "attributes" : {
                        "POSITION" : 15,
                        "NORMAL" : 16,
                        "TEXCOORD_0" : 17
                    },
                    "indices" : 11,
                    "material" : 2
                }
            ]
        },
        {
            "name" : "Cube.010",
            "primitives" : [
                {
                    "attributes" : {
                        "POSITION" : 18,
                        "NORMAL" : 19,
                        "TEXCOORD_0" : 20
                    },
                    "indices" : 7,
                    "material" : 1
                }
            ]
        },
        {
            "name" : "Cube.011",
            "primitives" : [
                {
                    "attributes" : {
                        "POSITION" : 21,
                        "NORMAL" : 22,
                        "TEXCOORD_0" : 23
                    },
                    "indices" : 11,
                    "material" : 2
                }
            ]
        },
        {
            "name" : "Cube.012",
            "primitives" : [
                {
                    "attributes" : {
                        "POSITION" : 24,
                        "NORMAL" : 25,
                        "TEXCOORD_0" : 26
                    },
                    "indices" : 7,
                    "material" : 1
                }
            ]
        },
        {
            "name" : "Cube.013",
            "primitives" : [
                {
                    "attributes" : {
                        "POSITION" : 27,
                        "NORMAL" : 28,
                        "TEXCOORD_0" : 29
                    },
                    "indices" : 11,
                    "material" : 2
                }
            ]
        }
    ],
    "textures" : [
        {
            "sampler" : 0,
            "source" : 0
        },
        {
            "sampler" : 0,
            "source" : 0
        },
        {
            "sampler" : 0,
            "source" : 0
        }
    ],
    "images" : [
        {
            "bufferView" : 4,
            "mimeType" : "image/png",
            "name" : "BDSpotV1"
        }
    ],
    "accessors" : [
        {
            "bufferView" : 0,
            "componentType" : 5126,
            "count" : 190,
            "max" : [
                0.25,
                0.323088139295578,
                0.2944483160972595
            ],
            "min" : [
                -0.25,
                -0.25,
                -0.33779600262641907
            ],
            "type" : "VEC3"
        },
        {
            "bufferView" : 1,
            "componentType" : 5126,
            "count" : 190,
            "type" : "VEC3"
        },
        {
            "bufferView" : 2,
            "componentType" : 5126,
            "count" : 190,
            "type" : "VEC2"
        },
        {
            "bufferView" : 3,
            "componentType" : 5123,
            "count" : 300,
            "type" : "SCALAR"
        },
        {
            "bufferView" : 5,
            "componentType" : 5126,
            "count" : 42,
            "max" : [
                0.25,
                0.25,
                0.25
            ],
            "min" : [
                -0.25,
                -0.6470321416854858,
                -0.25
            ],
            "type" : "VEC3"
        },
        {
            "bufferView" : 6,
            "componentType" : 5126,
            "count" : 42,
            "type" : "VEC3"
        },
        {
            "bufferView" : 7,
            "componentType" : 5126,
            "count" : 42,
            "type" : "VEC2"
        },
        {
            "bufferView" : 8,
            "componentType" : 5123,
            "count" : 72,
            "type" : "SCALAR"
        },
        {
            "bufferView" : 9,
            "componentType" : 5126,
            "count" : 92,
            "max" : [
                0.2500000298023224,
                0.25,
                0.25
            ],
            "min" : [
                -0.2500000298023224,
                -0.2808256149291992,
                -0.25
            ],
            "type" : "VEC3"
        },
        {
            "bufferView" : 10,
            "componentType" : 5126,
            "count" : 92,
            "type" : "VEC3"
        },
        {
            "bufferView" : 11,
            "componentType" : 5126,
            "count" : 92,
            "type" : "VEC2"
        },
        {
            "bufferView" : 12,
            "componentType" : 5123,
            "count" : 156,
            "type" : "SCALAR"
        },
        {
            "bufferView" : 13,
            "componentType" : 5126,
            "count" : 42,
            "max" : [
                0.25,
                0.25,
                0.25
            ],
            "min" : [
                -0.25,
                -0.6470321416854858,
                -0.25
            ],
            "type" : "VEC3"
        },
        {
            "bufferView" : 14,
            "componentType" : 5126,
            "count" : 42,
            "type" : "VEC3"
        },
        {
            "bufferView" : 15,
            "componentType" : 5126,
            "count" : 42,
            "type" : "VEC2"
        },
        {
            "bufferView" : 16,
            "componentType" : 5126,
            "count" : 92,
            "max" : [
                0.2500000298023224,
                0.25,
                0.25
            ],
            "min" : [
                -0.2500000298023224,
                -0.2808256149291992,
                -0.25
            ],
            "type" : "VEC3"
        },
        {
            "bufferView" : 17,
            "componentType" : 5126,
            "count" : 92,
            "type" : "VEC3"
        },
        {
            "bufferView" : 18,
            "componentType" : 5126,
            "count" : 92,
            "type" : "VEC2"
        },
        {
            "bufferView" : 19,
            "componentType" : 5126,
            "count" : 42,
            "max" : [
                0.25,
                0.25,
                0.25
            ],
            "min" : [
                -0.25,
                -0.6470321416854858,
                -0.25
            ],
            "type" : "VEC3"
        },
        {
            "bufferView" : 20,
            "componentType" : 5126,
            "count" : 42,
            "type" : "VEC3"
        },
        {
            "bufferView" : 21,
            "componentType" : 5126,
            "count" : 42,
            "type" : "VEC2"
        },
        {
            "bufferView" : 22,
            "componentType" : 5126,
            "count" : 92,
            "max" : [
                0.2500000298023224,
                0.25,
                0.25
            ],
            "min" : [
                -0.2500000298023224,
                -0.2808256149291992,
                -0.25
            ],
            "type" : "VEC3"
        },
        {
            "bufferView" : 23,
            "componentType" : 5126,
            "count" : 92,
            "type" : "VEC3"
        },
        {
            "bufferView" : 24,
            "componentType" : 5126,
            "count" : 92,
            "type" : "VEC2"
        },
        {
            "bufferView" : 25,
            "componentType" : 5126,
            "count" : 42,
            "max" : [
                0.25,
                0.25,
                0.25
            ],
            "min" : [
                -0.25,
                -0.6470321416854858,
                -0.25
            ],
            "type" : "VEC3"
        },
        {
            "bufferView" : 26,
            "componentType" : 5126,
            "count" : 42,
            "type" : "VEC3"
        },
        {
            "bufferView" : 27,
            "componentType" : 5126,
            "count" : 42,
            "type" : "VEC2"
        },
        {
            "bufferView" : 28,
            "componentType" : 5126,
            "count" : 92,
            "max" : [
                0.2500000298023224,
                0.25,
                0.25
            ],
            "min" : [
                -0.2500000298023224,
                -0.2808256149291992,
                -0.25
            ],
            "type" : "VEC3"
        },
        {
            "bufferView" : 29,
            "componentType" : 5126,
            "count" : 92,
            "type" : "VEC3"
        },
        {
            "bufferView" : 30,
            "componentType" : 5126,
            "count" : 92,
            "type" : "VEC2"
        }
    ],
    "bufferViews" : [
        {
            "buffer" : 0,
            "byteLength" : 2280,
            "byteOffset" : 0
        },
        {
            "buffer" : 0,
            "byteLength" : 2280,
            "byteOffset" : 2280
        },
        {
            "buffer" : 0,
            "byteLength" : 1520,
            "byteOffset" : 4560
        },
        {
            "buffer" : 0,
            "byteLength" : 600,
            "byteOffset" : 6080
        },
        {
            "buffer" : 0,
            "byteLength" : 1012789,
            "byteOffset" : 6680
        },
        {
            "buffer" : 0,
            "byteLength" : 504,
            "byteOffset" : 1019472
        },
        {
            "buffer" : 0,
            "byteLength" : 504,
            "byteOffset" : 1019976
        },
        {
            "buffer" : 0,
            "byteLength" : 336,
            "byteOffset" : 1020480
        },
        {
            "buffer" : 0,
            "byteLength" : 144,
            "byteOffset" : 1020816
        },
        {
            "buffer" : 0,
            "byteLength" : 1104,
            "byteOffset" : 1020960
        },
        {
            "buffer" : 0,
            "byteLength" : 1104,
            "byteOffset" : 1022064
        },
        {
            "buffer" : 0,
            "byteLength" : 736,
            "byteOffset" : 1023168
        },
        {
            "buffer" : 0,
            "byteLength" : 312,
            "byteOffset" : 1023904
        },
        {
            "buffer" : 0,
            "byteLength" : 504,
            "byteOffset" : 1024216
        },
        {
            "buffer" : 0,
            "byteLength" : 504,
            "byteOffset" : 1024720
        },
        {
            "buffer" : 0,
            "byteLength" : 336,
            "byteOffset" : 1025224
        },
        {
            "buffer" : 0,
            "byteLength" : 1104,
            "byteOffset" : 1025560
        },
        {
            "buffer" : 0,
            "byteLength" : 1104,
            "byteOffset" : 1026664
        },
        {
            "buffer" : 0,
            "byteLength" : 736,
            "byteOffset" : 1027768
        },
        {
            "buffer" : 0,
            "byteLength" : 504,
            "byteOffset" : 1028504
        },
        {
            "buffer" : 0,
            "byteLength" : 504,
            "byteOffset" : 1029008
        },
        {
            "buffer" : 0,
            "byteLength" : 336,
            "byteOffset" : 1029512
        },
        {
            "buffer" : 0,
            "byteLength" : 1104,
            "byteOffset" : 1029848
        },
        {
            "buffer" : 0,
            "byteLength" : 1104,
            "byteOffset" : 1030952
        },
        {
            "buffer" : 0,
            "byteLength" : 736,
            "byteOffset" : 1032056
        },
        {
            "buffer" : 0,
            "byteLength" : 504,
            "byteOffset" : 1032792
        },
        {
            "buffer" : 0,
            "byteLength" : 504,
            "byteOffset" : 1033296
        },
        {
            "buffer" : 0,
            "byteLength" : 336,
            "byteOffset" : 1033800
        },
        {
            "buffer" : 0,
            "byteLength" : 1104,
            "byteOffset" : 1034136
        },
        {
            "buffer" : 0,
            "byteLength" : 1104,
            "byteOffset" : 1035240
        },
        {
            "buffer" : 0,
            "byteLength" : 736,
            "byteOffset" : 1036344
        }
    ],
    "samplers" : [
        {
            "magFilter" : 9729,
            "minFilter" : 9987
        }
    ],
    "buffers" : [
        {
            "byteLength" : 1037080,
            "uri" : "data:application/octet-stream;base64,"
        }
    ]
}
