{
    "asset" : {
        "generator" : "Khronos glTF Blender I/O v1.5.17",
        "version" : "2.0"
    },
    "scene" : 0,
    "scenes" : [
        {
            "name" : "Scene",
            "nodes" : [
                0,
                1,
                2,
                3,
                4
            ]
        }
    ],
    "nodes" : [
        {
            "mesh" : 0,
            "name" : "Cube",
            "scale" : [
                -1,
                0.054722368717193604,
                -0.7409560680389404
            ],
            "translation" : [
                0.008024793118238449,
                0.23658263683319092,
                0.09235738217830658
            ]
        },
        {
            "mesh" : 1,
            "name" : "Cylinder",
            "rotation" : [
                -0.16873590648174286,
                -0.16873589158058167,
                0.6866791248321533,
                0.6866791844367981
            ],
            "scale" : [
                -0.029891012236475945,
                -0.029891012236475945,
                -0.029891012236475945
            ],
            "translation" : [
                0.13016389310359955,
                1.1104663610458374,
                0.24531999230384827
            ]
        },
        {
            "mesh" : 2,
            "name" : "Cylinder.001",
            "rotation" : [
                0.09517880529165268,
                0.09517879784107208,
                0.7006717920303345,
                0.7006718516349792
            ],
            "scale" : [
                -0.029891012236475945,
                -0.029891012236475945,
                -0.029891012236475945
            ],
            "translation" : [
                0.0939827635884285,
                1.1104663610458374,
                0.15890327095985413
            ]
        },
        {
            "mesh" : 3,
            "name" : "Cube.001",
            "rotation" : [
                0,
                0.11787939816713333,
                0,
                0.993027925491333
            ],
            "scale" : [
                1,
                0.23568284511566162,
                1
            ],
            "translation" : [
                -0.10721822082996368,
                1.1290616989135742,
                0.1047583743929863
            ]
        },
        {
            "mesh" : 4,
            "name" : "Cube.002",
            "rotation" : [
                0,
                -0.13022859394550323,
                0,
                0.9914839863777161
            ],
            "scale" : [
                1,
                0.23568284511566162,
                1
            ],
            "translation" : [
                0.12856078147888184,
                1.1290616989135742,
                0.03651807829737663
            ]
        }
    ],
    "meshes" : [
        {
            "name" : "Cube.001",
            "primitives" : [
                {
                    "attributes" : {
                        "POSITION" : 0,
                        "NORMAL" : 1,
                        "TEXCOORD_0" : 2
                    },
                    "indices" : 3
                }
            ]
        },
        {
            "name" : "Cylinder.002",
            "primitives" : [
                {
                    "attributes" : {
                        "POSITION" : 4,
                        "NORMAL" : 5,
                        "TEXCOORD_0" : 6
                    },
                    "indices" : 7
                }
            ]
        },
        {
            "name" : "Cylinder.003",
            "primitives" : [
                {
                    "attributes" : {
                        "POSITION" : 8,
                        "NORMAL" : 9,
                        "TEXCOORD_0" : 10
                    },
                    "indices" : 7
                }
            ]
        },
        {
            "name" : "Cube.002",
            "primitives" : [
                {
                    "attributes" : {
                        "POSITION" : 11,
                        "NORMAL" : 12,
                        "TEXCOORD_0" : 13
                    },
                    "indices" : 14
                }
            ]
        },
        {
            "name" : "Cube.004",
            "primitives" : [
                {
                    "attributes" : {
                        "POSITION" : 15,
                        "NORMAL" : 16,
                        "TEXCOORD_0" : 17
                    },
                    "indices" : 14
                }
            ]
        }
    ],
    "accessors" : [
        {
            "bufferView" : 0,
            "componentType" : 5126,
            "count" : 172,
            "max" : [
                0.25,
                15.881490707397461,
                0.25
            ],
            "min" : [
                -0.25,
                -4.29233455657959,
                -0.25
            ],
            "type" : "VEC3"
        },
        {
            "bufferView" : 1,
            "componentType" : 5126,
            "count" : 172,
            "type" : "VEC3"
        },
        {
            "bufferView" : 2,
            "componentType" : 5126,
            "count" : 172,
            "type" : "VEC2"
        },
        {
            "bufferView" : 3,
            "componentType" : 5123,
            "count" : 252,
            "type" : "SCALAR"
        },
        {
            "bufferView" : 4,
            "componentType" : 5126,
            "count" : 194,
            "max" : [
                0.20863552391529083,
                0.20000000298023224,
                0.24091152846813202
            ],
            "min" : [
                -0.20863552391529083,
                -2.2398362159729004,
                -0.24091152846813202
            ],
            "type" : "VEC3"
        },
        {
            "bufferView" : 5,
            "componentType" : 5126,
            "count" : 194,
            "type" : "VEC3"
        },
        {
            "bufferView" : 6,
            "componentType" : 5126,
            "count" : 194,
            "type" : "VEC2"
        },
        {
            "bufferView" : 7,
            "componentType" : 5123,
            "count" : 204,
            "type" : "SCALAR"
        },
        {
            "bufferView" : 8,
            "componentType" : 5126,
            "count" : 194,
            "max" : [
                0.20863552391529083,
                0.20000000298023224,
                0.24091152846813202
            ],
            "min" : [
                -0.20863552391529083,
                -2.2398362159729004,
                -0.24091152846813202
            ],
            "type" : "VEC3"
        },
        {
            "bufferView" : 9,
            "componentType" : 5126,
            "count" : 194,
            "type" : "VEC3"
        },
        {
            "bufferView" : 10,
            "componentType" : 5126,
            "count" : 194,
            "type" : "VEC2"
        },
        {
            "bufferView" : 11,
            "componentType" : 5126,
            "count" : 24,
            "max" : [
                0.10000000149011612,
                0.10000000149011612,
                0.10000000149011612
            ],
            "min" : [
                -0.10000000149011612,
                -0.10000000149011612,
                -0.10000000149011612
            ],
            "type" : "VEC3"
        },
        {
            "bufferView" : 12,
            "componentType" : 5126,
            "count" : 24,
            "type" : "VEC3"
        },
        {
            "bufferView" : 13,
            "componentType" : 5126,
            "count" : 24,
            "type" : "VEC2"
        },
        {
            "bufferView" : 14,
            "componentType" : 5123,
            "count" : 36,
            "type" : "SCALAR"
        },
        {
            "bufferView" : 15,
            "componentType" : 5126,
            "count" : 24,
            "max" : [
                0.10000000149011612,
                0.10000000149011612,
                0.10000000149011612
            ],
            "min" : [
                -0.10000000149011612,
                -0.10000000149011612,
                -0.10000000149011612
            ],
            "type" : "VEC3"
        },
        {
            "bufferView" : 16,
            "componentType" : 5126,
            "count" : 24,
            "type" : "VEC3"
        },
        {
            "bufferView" : 17,
            "componentType" : 5126,
            "count" : 24,
            "type" : "VEC2"
        }
    ],
    "bufferViews" : [
        {
            "buffer" : 0,
            "byteLength" : 2064,
            "byteOffset" : 0
        },
        {
            "buffer" : 0,
            "byteLength" : 2064,
            "byteOffset" : 2064
        },
        {
            "buffer" : 0,
            "byteLength" : 1376,
            "byteOffset" : 4128
        },
        {
            "buffer" : 0,
            "byteLength" : 504,
            "byteOffset" : 5504
        },
        {
            "buffer" : 0,
            "byteLength" : 2328,
            "byteOffset" : 6008
        },
        {
            "buffer" : 0,
            "byteLength" : 2328,
            "byteOffset" : 8336
        },
        {
            "buffer" : 0,
            "byteLength" : 1552,
            "byteOffset" : 10664
        },
        {
            "buffer" : 0,
            "byteLength" : 408,
            "byteOffset" : 12216
        },
        {
            "buffer" : 0,
            "byteLength" : 2328,
            "byteOffset" : 12624
        },
        {
            "buffer" : 0,
            "byteLength" : 2328,
            "byteOffset" : 14952
        },
        {
            "buffer" : 0,
            "byteLength" : 1552,
            "byteOffset" : 17280
        },
        {
            "buffer" : 0,
            "byteLength" : 288,
            "byteOffset" : 18832
        },
        {
            "buffer" : 0,
            "byteLength" : 288,
            "byteOffset" : 19120
        },
        {
            "buffer" : 0,
            "byteLength" : 192,
            "byteOffset" : 19408
        },
        {
            "buffer" : 0,
            "byteLength" : 72,
            "byteOffset" : 19600
        },
        {
            "buffer" : 0,
            "byteLength" : 288,
            "byteOffset" : 19672
        },
        {
            "buffer" : 0,
            "byteLength" : 288,
            "byteOffset" : 19960
        },
        {
            "buffer" : 0,
            "byteLength" : 192,
            "byteOffset" : 20248
        }
    ],
    "buffers" : [
        {
            "byteLength" : 20440,
            "uri" : "data:application/octet-stream;base64,"
        }
    ]
}
