{
    "asset" : {
        "generator" : "Khronos glTF Blender I/O v1.5.17",
        "version" : "2.0"
    },
    "scene" : 0,
    "scenes" : [
        {
            "name" : "Scene",
            "nodes" : [
                0,
                1
            ]
        }
    ],
    "nodes" : [
        {
            "mesh" : 0,
            "name" : "Cube",
            "translation" : [
                0,
                0.2527618408203125,
                0
            ]
        },
        {
            "mesh" : 1,
            "name" : "Cube.001",
            "rotation" : [
                0,
                0,
                0.09012851119041443,
                0.9959301352500916
            ],
            "scale" : [
                0.40227842330932617,
                0.01748584769666195,
                0.35917234420776367
            ],
            "translation" : [
                -0.03768400475382805,
                0.9194321632385254,
                -0.07062263041734695
            ]
        }
    ],
    "materials" : [
        {
            "doubleSided" : true,
            "name" : "Printer",
            "pbrMetallicRoughness" : {
                "baseColorTexture" : {
                    "index" : 0
                },
                "metallicFactor" : 0,
                "roughnessFactor" : 0.4000000059604645
            }
        }
    ],
    "meshes" : [
        {
            "name" : "Cube.001",
            "primitives" : [
                {
                    "attributes" : {
                        "POSITION" : 0,
                        "NORMAL" : 1,
                        "TEXCOORD_0" : 2
                    },
                    "indices" : 3,
                    "material" : 0
                }
            ]
        },
        {
            "name" : "Cube.002",
            "primitives" : [
                {
                    "attributes" : {
                        "POSITION" : 4,
                        "NORMAL" : 5,
                        "TEXCOORD_0" : 6
                    },
                    "indices" : 7,
                    "material" : 0
                }
            ]
        }
    ],
    "textures" : [
        {
            "sampler" : 0,
            "source" : 0
        }
    ],
    "images" : [
        {
            "bufferView" : 4,
            "mimeType" : "image/png",
            "name" : "ChairV1"
        }
    ],
    "accessors" : [
        {
            "bufferView" : 0,
            "componentType" : 5126,
            "count" : 1062,
            "max" : [
                0.25,
                0.6953126788139343,
                0.25
            ],
            "min" : [
                -0.25000008940696716,
                -0.25,
                -0.25
            ],
            "type" : "VEC3"
        },
        {
            "bufferView" : 1,
            "componentType" : 5126,
            "count" : 1062,
            "type" : "VEC3"
        },
        {
            "bufferView" : 2,
            "componentType" : 5126,
            "count" : 1062,
            "type" : "VEC2"
        },
        {
            "bufferView" : 3,
            "componentType" : 5123,
            "count" : 2202,
            "type" : "SCALAR"
        },
        {
            "bufferView" : 5,
            "componentType" : 5126,
            "count" : 234,
            "max" : [
                0.25,
                1.3169058561325073,
                0.25
            ],
            "min" : [
                -0.25,
                -0.2500000298023224,
                -0.25
            ],
            "type" : "VEC3"
        },
        {
            "bufferView" : 6,
            "componentType" : 5126,
            "count" : 234,
            "type" : "VEC3"
        },
        {
            "bufferView" : 7,
            "componentType" : 5126,
            "count" : 234,
            "type" : "VEC2"
        },
        {
            "bufferView" : 8,
            "componentType" : 5123,
            "count" : 420,
            "type" : "SCALAR"
        }
    ],
    "bufferViews" : [
        {
            "buffer" : 0,
            "byteLength" : 12744,
            "byteOffset" : 0
        },
        {
            "buffer" : 0,
            "byteLength" : 12744,
            "byteOffset" : 12744
        },
        {
            "buffer" : 0,
            "byteLength" : 8496,
            "byteOffset" : 25488
        },
        {
            "buffer" : 0,
            "byteLength" : 4404,
            "byteOffset" : 33984
        },
        {
            "buffer" : 0,
            "byteLength" : 932533,
            "byteOffset" : 38388
        },
        {
            "buffer" : 0,
            "byteLength" : 2808,
            "byteOffset" : 970924
        },
        {
            "buffer" : 0,
            "byteLength" : 2808,
            "byteOffset" : 973732
        },
        {
            "buffer" : 0,
            "byteLength" : 1872,
            "byteOffset" : 976540
        },
        {
            "buffer" : 0,
            "byteLength" : 840,
            "byteOffset" : 978412
        }
    ],
    "samplers" : [
        {
            "magFilter" : 9729,
            "minFilter" : 9987
        }
    ],
    "buffers" : [
        {
            "byteLength" : 979252,
            "uri" : "data:application/octet-stream;base64,"
        }
    ]
}
