{
    "asset" : {
        "generator" : "Khronos glTF Blender I/O v1.5.17",
        "version" : "2.0"
    },
    "scene" : 0,
    "scenes" : [
        {
            "name" : "Scene",
            "nodes" : [
                0,
                1,
                2,
                3,
                4,
                5
            ]
        }
    ],
    "nodes" : [
        {
            "name" : "Light",
            "rotation" : [
                0.16907575726509094,
                0.7558803558349609,
                -0.27217137813568115,
                0.570947527885437
            ],
            "translation" : [
                4.076245307922363,
                5.903861999511719,
                -1.0054539442062378
            ]
        },
        {
            "name" : "Camera",
            "rotation" : [
                0.483536034822464,
                0.33687159419059753,
                -0.20870360732078552,
                0.7804827094078064
            ],
            "translation" : [
                7.358891487121582,
                4.958309173583984,
                6.925790786743164
            ]
        },
        {
            "mesh" : 0,
            "name" : "Cube",
            "translation" : [
                0,
                0.2527618408203125,
                0
            ]
        },
        {
            "mesh" : 1,
            "name" : "Cube.002",
            "rotation" : [
                0.6755902171134949,
                0,
                0,
                0.7372773885726929
            ],
            "scale" : [
                0.493397057056427,
                -0.11918541043996811,
                0.19316333532333374
            ],
            "translation" : [
                0,
                1.5276206731796265,
                0.15688413381576538
            ]
        },
        {
            "mesh" : 2,
            "name" : "Cube.003",
            "rotation" : [
                0,
                0.7071067690849304,
                0,
                0.7071068286895752
            ],
            "scale" : [
                0.13465368747711182,
                0.6144196391105652,
                0.1352371871471405
            ],
            "translation" : [
                0.28516799211502075,
                1.5746742486953735,
                -0.0009496435523033142
            ]
        },
        {
            "mesh" : 3,
            "name" : "Cube.004",
            "rotation" : [
                0,
                -0.6755902171134949,
                0,
                0.7372773885726929
            ],
            "scale" : [
                0.12824158370494843,
                0.585161566734314,
                0.12879732251167297
            ],
            "translation" : [
                -0.28699445724487305,
                1.5746742486953735,
                -0.0009496435523033142
            ]
        }
    ],
    "materials" : [
        {
            "doubleSided" : true,
            "name" : "Material.002",
            "pbrMetallicRoughness" : {
                "baseColorTexture" : {
                    "index" : 0
                },
                "metallicFactor" : 0,
                "roughnessFactor" : 0.5
            }
        },
        {
            "doubleSided" : true,
            "name" : "Material.001",
            "pbrMetallicRoughness" : {
                "baseColorTexture" : {
                    "index" : 1
                },
                "metallicFactor" : 0,
                "roughnessFactor" : 0.5
            }
        }
    ],
    "meshes" : [
        {
            "name" : "Cube.001",
            "primitives" : [
                {
                    "attributes" : {
                        "POSITION" : 0,
                        "NORMAL" : 1,
                        "TEXCOORD_0" : 2
                    },
                    "indices" : 3,
                    "material" : 0
                }
            ]
        },
        {
            "name" : "Cube.003",
            "primitives" : [
                {
                    "attributes" : {
                        "POSITION" : 4,
                        "NORMAL" : 5,
                        "TEXCOORD_0" : 6
                    },
                    "indices" : 7,
                    "material" : 1
                }
            ]
        },
        {
            "name" : "Cube.004",
            "primitives" : [
                {
                    "attributes" : {
                        "POSITION" : 8,
                        "NORMAL" : 9,
                        "TEXCOORD_0" : 10
                    },
                    "indices" : 11,
                    "material" : 0
                }
            ]
        },
        {
            "name" : "Cube.005",
            "primitives" : [
                {
                    "attributes" : {
                        "POSITION" : 12,
                        "NORMAL" : 13,
                        "TEXCOORD_0" : 14
                    },
                    "indices" : 11,
                    "material" : 0
                }
            ]
        }
    ],
    "textures" : [
        {
            "sampler" : 0,
            "source" : 0
        },
        {
            "sampler" : 0,
            "source" : 1
        }
    ],
    "images" : [
        {
            "bufferView" : 4,
            "mimeType" : "image/png",
            "name" : "Kokkenbord"
        },
        {
            "bufferView" : 9,
            "mimeType" : "image/png",
            "name" : "BDSpotV1"
        }
    ],
    "accessors" : [
        {
            "bufferView" : 0,
            "componentType" : 5126,
            "count" : 105,
            "max" : [
                0.25,
                1.4725449085235596,
                0.25
            ],
            "min" : [
                -0.25,
                -0.25,
                -0.25
            ],
            "type" : "VEC3"
        },
        {
            "bufferView" : 1,
            "componentType" : 5126,
            "count" : 105,
            "type" : "VEC3"
        },
        {
            "bufferView" : 2,
            "componentType" : 5126,
            "count" : 105,
            "type" : "VEC2"
        },
        {
            "bufferView" : 3,
            "componentType" : 5123,
            "count" : 180,
            "type" : "SCALAR"
        },
        {
            "bufferView" : 5,
            "componentType" : 5126,
            "count" : 414,
            "max" : [
                0.2764720320701599,
                0.25,
                0.25
            ],
            "min" : [
                -0.2764720320701599,
                -0.25,
                -1.0820045471191406
            ],
            "type" : "VEC3"
        },
        {
            "bufferView" : 6,
            "componentType" : 5126,
            "count" : 414,
            "type" : "VEC3"
        },
        {
            "bufferView" : 7,
            "componentType" : 5126,
            "count" : 414,
            "type" : "VEC2"
        },
        {
            "bufferView" : 8,
            "componentType" : 5123,
            "count" : 750,
            "type" : "SCALAR"
        },
        {
            "bufferView" : 10,
            "componentType" : 5126,
            "count" : 1036,
            "max" : [
                0.48840489983558655,
                0.5196870565414429,
                0.25
            ],
            "min" : [
                -0.4884053170681,
                -0.25,
                -1.1107351779937744
            ],
            "type" : "VEC3"
        },
        {
            "bufferView" : 11,
            "componentType" : 5126,
            "count" : 1036,
            "type" : "VEC3"
        },
        {
            "bufferView" : 12,
            "componentType" : 5126,
            "count" : 1036,
            "type" : "VEC2"
        },
        {
            "bufferView" : 13,
            "componentType" : 5123,
            "count" : 1560,
            "type" : "SCALAR"
        },
        {
            "bufferView" : 14,
            "componentType" : 5126,
            "count" : 1036,
            "max" : [
                0.48840489983558655,
                0.5196870565414429,
                0.25
            ],
            "min" : [
                -0.4884053170681,
                -0.25,
                -1.1107351779937744
            ],
            "type" : "VEC3"
        },
        {
            "bufferView" : 15,
            "componentType" : 5126,
            "count" : 1036,
            "type" : "VEC3"
        },
        {
            "bufferView" : 16,
            "componentType" : 5126,
            "count" : 1036,
            "type" : "VEC2"
        }
    ],
    "bufferViews" : [
        {
            "buffer" : 0,
            "byteLength" : 1260,
            "byteOffset" : 0
        },
        {
            "buffer" : 0,
            "byteLength" : 1260,
            "byteOffset" : 1260
        },
        {
            "buffer" : 0,
            "byteLength" : 840,
            "byteOffset" : 2520
        },
        {
            "buffer" : 0,
            "byteLength" : 360,
            "byteOffset" : 3360
        },
        {
            "buffer" : 0,
            "byteLength" : 579869,
            "byteOffset" : 3720
        },
        {
            "buffer" : 0,
            "byteLength" : 4968,
            "byteOffset" : 583592
        },
        {
            "buffer" : 0,
            "byteLength" : 4968,
            "byteOffset" : 588560
        },
        {
            "buffer" : 0,
            "byteLength" : 3312,
            "byteOffset" : 593528
        },
        {
            "buffer" : 0,
            "byteLength" : 1500,
            "byteOffset" : 596840
        },
        {
            "buffer" : 0,
            "byteLength" : 1012789,
            "byteOffset" : 598340
        },
        {
            "buffer" : 0,
            "byteLength" : 12432,
            "byteOffset" : 1611132
        },
        {
            "buffer" : 0,
            "byteLength" : 12432,
            "byteOffset" : 1623564
        },
        {
            "buffer" : 0,
            "byteLength" : 8288,
            "byteOffset" : 1635996
        },
        {
            "buffer" : 0,
            "byteLength" : 3120,
            "byteOffset" : 1644284
        },
        {
            "buffer" : 0,
            "byteLength" : 12432,
            "byteOffset" : 1647404
        },
        {
            "buffer" : 0,
            "byteLength" : 12432,
            "byteOffset" : 1659836
        },
        {
            "buffer" : 0,
            "byteLength" : 8288,
            "byteOffset" : 1672268
        }
    ],
    "samplers" : [
        {
            "magFilter" : 9729,
            "minFilter" : 9987
        }
    ],
    "buffers" : [
        {
            "byteLength" : 1680556,
            "uri" : "data:application/octet-stream;base64,"
        }
    ]
}
