{
    "asset" : {
        "generator" : "Khronos glTF Blender I/O v1.5.17",
        "version" : "2.0"
    },
    "scene" : 0,
    "scenes" : [
        {
            "name" : "Scene",
            "nodes" : [
                0,
                1,
                2,
                3,
                4
            ]
        }
    ],
    "nodes" : [
        {
            "mesh" : 0,
            "name" : "Cube",
            "scale" : [
                1,
                0.18277400732040405,
                0.5
            ],
            "translation" : [
                0,
                0.278876930475235,
                0
            ]
        },
        {
            "mesh" : 1,
            "name" : "Cube.002",
            "scale" : [
                0.06497889757156372,
                0.06497889757156372,
                0.06497889757156372
            ],
            "translation" : [
                0.599595308303833,
                0.062274668365716934,
                0.17583437263965607
            ]
        },
        {
            "mesh" : 2,
            "name" : "Cube.003",
            "scale" : [
                0.06497889757156372,
                0.06497889757156372,
                0.06497889757156372
            ],
            "translation" : [
                0.599595308303833,
                0.062274668365716934,
                -0.1798866242170334
            ]
        },
        {
            "mesh" : 3,
            "name" : "Cube.004",
            "scale" : [
                0.06497889757156372,
                0.06497889757156372,
                0.06497889757156372
            ],
            "translation" : [
                -0.6023693084716797,
                0.062274668365716934,
                0.17583437263965607
            ]
        },
        {
            "mesh" : 4,
            "name" : "Cube.005",
            "scale" : [
                0.06497889757156372,
                0.06497889757156372,
                0.06497889757156372
            ],
            "translation" : [
                -0.6023693084716797,
                0.062274668365716934,
                -0.1798866242170334
            ]
        }
    ],
    "meshes" : [
        {
            "name" : "Cube.001",
            "primitives" : [
                {
                    "attributes" : {
                        "POSITION" : 0,
                        "NORMAL" : 1,
                        "TEXCOORD_0" : 2
                    },
                    "indices" : 3
                }
            ]
        },
        {
            "name" : "Cube.003",
            "primitives" : [
                {
                    "attributes" : {
                        "POSITION" : 4,
                        "NORMAL" : 5,
                        "TEXCOORD_0" : 6
                    },
                    "indices" : 7
                }
            ]
        },
        {
            "name" : "Cube.005",
            "primitives" : [
                {
                    "attributes" : {
                        "POSITION" : 8,
                        "NORMAL" : 9,
                        "TEXCOORD_0" : 10
                    },
                    "indices" : 7
                }
            ]
        },
        {
            "name" : "Cube.006",
            "primitives" : [
                {
                    "attributes" : {
                        "POSITION" : 11,
                        "NORMAL" : 12,
                        "TEXCOORD_0" : 13
                    },
                    "indices" : 7
                }
            ]
        },
        {
            "name" : "Cube.007",
            "primitives" : [
                {
                    "attributes" : {
                        "POSITION" : 14,
                        "NORMAL" : 15,
                        "TEXCOORD_0" : 16
                    },
                    "indices" : 7
                }
            ]
        }
    ],
    "accessors" : [
        {
            "bufferView" : 0,
            "componentType" : 5126,
            "count" : 115,
            "max" : [
                0.6952943801879883,
                2.2153122425079346,
                0.5
            ],
            "min" : [
                -0.6952943801879883,
                -0.3218365013599396,
                -0.5
            ],
            "type" : "VEC3"
        },
        {
            "bufferView" : 1,
            "componentType" : 5126,
            "count" : 115,
            "type" : "VEC3"
        },
        {
            "bufferView" : 2,
            "componentType" : 5126,
            "count" : 115,
            "type" : "VEC2"
        },
        {
            "bufferView" : 3,
            "componentType" : 5123,
            "count" : 252,
            "type" : "SCALAR"
        },
        {
            "bufferView" : 4,
            "componentType" : 5126,
            "count" : 24,
            "max" : [
                0.8999999761581421,
                2.62349271774292,
                0.8999999761581421
            ],
            "min" : [
                -0.8999999761581421,
                -0.8999999761581421,
                -0.8999999761581421
            ],
            "type" : "VEC3"
        },
        {
            "bufferView" : 5,
            "componentType" : 5126,
            "count" : 24,
            "type" : "VEC3"
        },
        {
            "bufferView" : 6,
            "componentType" : 5126,
            "count" : 24,
            "type" : "VEC2"
        },
        {
            "bufferView" : 7,
            "componentType" : 5123,
            "count" : 36,
            "type" : "SCALAR"
        },
        {
            "bufferView" : 8,
            "componentType" : 5126,
            "count" : 24,
            "max" : [
                0.8999999761581421,
                2.62349271774292,
                0.8999999761581421
            ],
            "min" : [
                -0.8999999761581421,
                -0.8999999761581421,
                -0.8999999761581421
            ],
            "type" : "VEC3"
        },
        {
            "bufferView" : 9,
            "componentType" : 5126,
            "count" : 24,
            "type" : "VEC3"
        },
        {
            "bufferView" : 10,
            "componentType" : 5126,
            "count" : 24,
            "type" : "VEC2"
        },
        {
            "bufferView" : 11,
            "componentType" : 5126,
            "count" : 24,
            "max" : [
                0.8999999761581421,
                2.62349271774292,
                0.8999999761581421
            ],
            "min" : [
                -0.8999999761581421,
                -0.8999999761581421,
                -0.8999999761581421
            ],
            "type" : "VEC3"
        },
        {
            "bufferView" : 12,
            "componentType" : 5126,
            "count" : 24,
            "type" : "VEC3"
        },
        {
            "bufferView" : 13,
            "componentType" : 5126,
            "count" : 24,
            "type" : "VEC2"
        },
        {
            "bufferView" : 14,
            "componentType" : 5126,
            "count" : 24,
            "max" : [
                0.8999999761581421,
                2.62349271774292,
                0.8999999761581421
            ],
            "min" : [
                -0.8999999761581421,
                -0.8999999761581421,
                -0.8999999761581421
            ],
            "type" : "VEC3"
        },
        {
            "bufferView" : 15,
            "componentType" : 5126,
            "count" : 24,
            "type" : "VEC3"
        },
        {
            "bufferView" : 16,
            "componentType" : 5126,
            "count" : 24,
            "type" : "VEC2"
        }
    ],
    "bufferViews" : [
        {
            "buffer" : 0,
            "byteLength" : 1380,
            "byteOffset" : 0
        },
        {
            "buffer" : 0,
            "byteLength" : 1380,
            "byteOffset" : 1380
        },
        {
            "buffer" : 0,
            "byteLength" : 920,
            "byteOffset" : 2760
        },
        {
            "buffer" : 0,
            "byteLength" : 504,
            "byteOffset" : 3680
        },
        {
            "buffer" : 0,
            "byteLength" : 288,
            "byteOffset" : 4184
        },
        {
            "buffer" : 0,
            "byteLength" : 288,
            "byteOffset" : 4472
        },
        {
            "buffer" : 0,
            "byteLength" : 192,
            "byteOffset" : 4760
        },
        {
            "buffer" : 0,
            "byteLength" : 72,
            "byteOffset" : 4952
        },
        {
            "buffer" : 0,
            "byteLength" : 288,
            "byteOffset" : 5024
        },
        {
            "buffer" : 0,
            "byteLength" : 288,
            "byteOffset" : 5312
        },
        {
            "buffer" : 0,
            "byteLength" : 192,
            "byteOffset" : 5600
        },
        {
            "buffer" : 0,
            "byteLength" : 288,
            "byteOffset" : 5792
        },
        {
            "buffer" : 0,
            "byteLength" : 288,
            "byteOffset" : 6080
        },
        {
            "buffer" : 0,
            "byteLength" : 192,
            "byteOffset" : 6368
        },
        {
            "buffer" : 0,
            "byteLength" : 288,
            "byteOffset" : 6560
        },
        {
            "buffer" : 0,
            "byteLength" : 288,
            "byteOffset" : 6848
        },
        {
            "buffer" : 0,
            "byteLength" : 192,
            "byteOffset" : 7136
        }
    ],
    "buffers" : [
        {
            "byteLength" : 7328,
            "uri" : "data:application/octet-stream;base64,"
        }
    ]
}
