{
    "asset" : {
        "generator" : "Khronos glTF Blender I/O v1.5.17",
        "version" : "2.0"
    },
    "scene" : 0,
    "scenes" : [
        {
            "name" : "Scene",
            "nodes" : [
                0
            ]
        }
    ],
    "nodes" : [
        {
            "mesh" : 0,
            "name" : "Desk1",
            "rotation" : [
                0,
                0.7071067690849304,
                0,
                0.7071068286895752
            ],
            "translation" : [
                0,
                0.25,
                0
            ]
        }
    ],
    "meshes" : [
        {
            "name" : "Cube.001",
            "primitives" : [
                {
                    "attributes" : {
                        "POSITION" : 0,
                        "NORMAL" : 1,
                        "TEXCOORD_0" : 2
                    },
                    "indices" : 3
                }
            ]
        }
    ],
    "accessors" : [
        {
            "bufferView" : 0,
            "componentType" : 5126,
            "count" : 178,
            "max" : [
                0.25,
                0.5,
                0.25
            ],
            "min" : [
                -0.3153073489665985,
                -0.25,
                -0.25
            ],
            "type" : "VEC3"
        },
        {
            "bufferView" : 1,
            "componentType" : 5126,
            "count" : 178,
            "type" : "VEC3"
        },
        {
            "bufferView" : 2,
            "componentType" : 5126,
            "count" : 178,
            "type" : "VEC2"
        },
        {
            "bufferView" : 3,
            "componentType" : 5123,
            "count" : 300,
            "type" : "SCALAR"
        }
    ],
    "bufferViews" : [
        {
            "buffer" : 0,
            "byteLength" : 2136,
            "byteOffset" : 0
        },
        {
            "buffer" : 0,
            "byteLength" : 2136,
            "byteOffset" : 2136
        },
        {
            "buffer" : 0,
            "byteLength" : 1424,
            "byteOffset" : 4272
        },
        {
            "buffer" : 0,
            "byteLength" : 600,
            "byteOffset" : 5696
        }
    ],
    "buffers" : [
        {
            "byteLength" : 6296,
            "uri" : "data:application/octet-stream;base64,"
        }
    ]
}
