{
    "asset" : {
        "generator" : "Khronos glTF Blender I/O v1.5.17",
        "version" : "2.0"
    },
    "scene" : 0,
    "scenes" : [
        {
            "name" : "Scene",
            "nodes" : [
                0,
                1,
                2,
                3,
                4,
                5,
                6,
                7,
                8,
                9,
                10
            ]
        }
    ],
    "nodes" : [
        {
            "name" : "Light",
            "rotation" : [
                0.16907575726509094,
                0.7558803558349609,
                -0.27217137813568115,
                0.570947527885437
            ],
            "translation" : [
                4.076245307922363,
                5.903861999511719,
                -1.0054539442062378
            ]
        },
        {
            "name" : "Camera",
            "rotation" : [
                0.483536034822464,
                0.33687159419059753,
                -0.20870360732078552,
                0.7804827094078064
            ],
            "translation" : [
                7.358891487121582,
                4.958309173583984,
                6.925790786743164
            ]
        },
        {
            "mesh" : 0,
            "name" : "Cube",
            "scale" : [
                -1,
                0.054722368717193604,
                -0.7409560680389404
            ],
            "translation" : [
                0.008024793118238449,
                0.23658263683319092,
                0.09235738217830658
            ]
        },
        {
            "mesh" : 1,
            "name" : "Cube.002",
            "scale" : [
                -0.19255566596984863,
                0.28357693552970886,
                -0.3931396007537842
            ],
            "translation" : [
                0.1830201894044876,
                1.1770753860473633,
                0.09235738217830658
            ]
        },
        {
            "mesh" : 2,
            "name" : "Cylinder.001",
            "rotation" : [
                0,
                -0.11505839228630066,
                0,
                0.9933587312698364
            ],
            "scale" : [
                -1.3274129629135132,
                1.3274128437042236,
                -1.3274129629135132
            ],
            "translation" : [
                0.04626788571476936,
                1.1092449426651,
                0.008035935461521149
            ]
        },
        {
            "mesh" : 3,
            "name" : "Cube.004",
            "rotation" : [
                0,
                -0.11505832523107529,
                0,
                0.9933587312698364
            ],
            "scale" : [
                -0.6675909161567688,
                0.6675909757614136,
                -0.15608927607536316
            ],
            "translation" : [
                0.047905150800943375,
                1.150190830230713,
                0.008420370519161224
            ]
        },
        {
            "mesh" : 4,
            "name" : "Cube.005",
            "rotation" : [
                0,
                -0.11505834013223648,
                0,
                0.9933587312698364
            ],
            "scale" : [
                -1.8588238954544067,
                0.6675909757614136,
                -0.15608927607536316
            ],
            "translation" : [
                0.044988829642534256,
                1.1943084001541138,
                0.020840555429458618
            ]
        },
        {
            "mesh" : 5,
            "name" : "Cube.006",
            "rotation" : [
                0,
                -4.4092535972595215e-05,
                0,
                1
            ],
            "scale" : [
                -2.2019810676574707,
                0.07648907601833344,
                -0.7776051759719849
            ],
            "translation" : [
                -0.02803986519575119,
                1.108640432357788,
                0.15629974007606506
            ]
        },
        {
            "mesh" : 6,
            "name" : "Cylinder.002",
            "rotation" : [
                0,
                0.26689207553863525,
                0,
                0.9637265205383301
            ],
            "scale" : [
                -1.3274129629135132,
                1.3274128437042236,
                -1.3274129629135132
            ],
            "translation" : [
                -0.15577419102191925,
                1.1092449426651,
                0.03384848311543465
            ]
        },
        {
            "mesh" : 7,
            "name" : "Cube.001",
            "rotation" : [
                0,
                0.26689210534095764,
                0,
                0.9637264013290405
            ],
            "scale" : [
                -0.6675909161567688,
                0.6675909757614136,
                -0.15608927607536316
            ],
            "translation" : [
                -0.1543319821357727,
                1.150190830230713,
                0.03298332914710045
            ]
        },
        {
            "mesh" : 8,
            "name" : "Cube.003",
            "rotation" : [
                0,
                0.26689210534095764,
                0,
                0.9637265205383301
            ],
            "scale" : [
                -1.8588238954544067,
                0.6675909757614136,
                -0.15608927607536316
            ],
            "translation" : [
                -0.1477690041065216,
                1.1943084001541138,
                0.043923765420913696
            ]
        }
    ],
    "meshes" : [
        {
            "name" : "Cube.001",
            "primitives" : [
                {
                    "attributes" : {
                        "POSITION" : 0,
                        "NORMAL" : 1,
                        "TEXCOORD_0" : 2
                    },
                    "indices" : 3
                }
            ]
        },
        {
            "name" : "Cube.003",
            "primitives" : [
                {
                    "attributes" : {
                        "POSITION" : 4,
                        "NORMAL" : 5,
                        "TEXCOORD_0" : 6
                    },
                    "indices" : 7
                }
            ]
        },
        {
            "name" : "Cylinder.001",
            "primitives" : [
                {
                    "attributes" : {
                        "POSITION" : 8,
                        "NORMAL" : 9,
                        "TEXCOORD_0" : 10
                    },
                    "indices" : 11
                }
            ]
        },
        {
            "name" : "Cube.006",
            "primitives" : [
                {
                    "attributes" : {
                        "POSITION" : 12,
                        "NORMAL" : 13,
                        "TEXCOORD_0" : 14
                    },
                    "indices" : 15
                }
            ]
        },
        {
            "name" : "Cube.007",
            "primitives" : [
                {
                    "attributes" : {
                        "POSITION" : 16,
                        "NORMAL" : 17,
                        "TEXCOORD_0" : 18
                    },
                    "indices" : 19
                }
            ]
        },
        {
            "name" : "Cube.008",
            "primitives" : [
                {
                    "attributes" : {
                        "POSITION" : 20,
                        "NORMAL" : 21,
                        "TEXCOORD_0" : 22
                    },
                    "indices" : 15
                }
            ]
        },
        {
            "name" : "Cylinder.002",
            "primitives" : [
                {
                    "attributes" : {
                        "POSITION" : 23,
                        "NORMAL" : 24,
                        "TEXCOORD_0" : 25
                    },
                    "indices" : 11
                }
            ]
        },
        {
            "name" : "Cube.004",
            "primitives" : [
                {
                    "attributes" : {
                        "POSITION" : 26,
                        "NORMAL" : 27,
                        "TEXCOORD_0" : 28
                    },
                    "indices" : 15
                }
            ]
        },
        {
            "name" : "Cube.005",
            "primitives" : [
                {
                    "attributes" : {
                        "POSITION" : 29,
                        "NORMAL" : 30,
                        "TEXCOORD_0" : 31
                    },
                    "indices" : 19
                }
            ]
        }
    ],
    "accessors" : [
        {
            "bufferView" : 0,
            "componentType" : 5126,
            "count" : 152,
            "max" : [
                0.25,
                15.881490707397461,
                0.25
            ],
            "min" : [
                -0.25,
                -4.29233455657959,
                -0.25
            ],
            "type" : "VEC3"
        },
        {
            "bufferView" : 1,
            "componentType" : 5126,
            "count" : 152,
            "type" : "VEC3"
        },
        {
            "bufferView" : 2,
            "componentType" : 5126,
            "count" : 152,
            "type" : "VEC2"
        },
        {
            "bufferView" : 3,
            "componentType" : 5123,
            "count" : 252,
            "type" : "SCALAR"
        },
        {
            "bufferView" : 4,
            "componentType" : 5126,
            "count" : 174,
            "max" : [
                0.25,
                0.25,
                0.25
            ],
            "min" : [
                -0.25,
                -0.25,
                -0.25
            ],
            "type" : "VEC3"
        },
        {
            "bufferView" : 5,
            "componentType" : 5126,
            "count" : 174,
            "type" : "VEC3"
        },
        {
            "bufferView" : 6,
            "componentType" : 5126,
            "count" : 174,
            "type" : "VEC2"
        },
        {
            "bufferView" : 7,
            "componentType" : 5123,
            "count" : 288,
            "type" : "SCALAR"
        },
        {
            "bufferView" : 8,
            "componentType" : 5126,
            "count" : 60,
            "max" : [
                0.04755282774567604,
                0.009999999776482582,
                0.05000000074505806
            ],
            "min" : [
                -0.04755282402038574,
                -0.009999999776482582,
                -0.05000000074505806
            ],
            "type" : "VEC3"
        },
        {
            "bufferView" : 9,
            "componentType" : 5126,
            "count" : 60,
            "type" : "VEC3"
        },
        {
            "bufferView" : 10,
            "componentType" : 5126,
            "count" : 60,
            "type" : "VEC2"
        },
        {
            "bufferView" : 11,
            "componentType" : 5123,
            "count" : 108,
            "type" : "SCALAR"
        },
        {
            "bufferView" : 12,
            "componentType" : 5126,
            "count" : 24,
            "max" : [
                0.05000000074505806,
                0.09834814816713333,
                0.05000000074505806
            ],
            "min" : [
                -0.05000000074505806,
                -0.05000000074505806,
                -0.05000000074505806
            ],
            "type" : "VEC3"
        },
        {
            "bufferView" : 13,
            "componentType" : 5126,
            "count" : 24,
            "type" : "VEC3"
        },
        {
            "bufferView" : 14,
            "componentType" : 5126,
            "count" : 24,
            "type" : "VEC2"
        },
        {
            "bufferView" : 15,
            "componentType" : 5123,
            "count" : 36,
            "type" : "SCALAR"
        },
        {
            "bufferView" : 16,
            "componentType" : 5126,
            "count" : 129,
            "max" : [
                0.05000000074505806,
                0.09834814816713333,
                0.05000000074505806
            ],
            "min" : [
                -0.05000000074505806,
                -0.05000000074505806,
                -0.05000000074505806
            ],
            "type" : "VEC3"
        },
        {
            "bufferView" : 17,
            "componentType" : 5126,
            "count" : 129,
            "type" : "VEC3"
        },
        {
            "bufferView" : 18,
            "componentType" : 5126,
            "count" : 129,
            "type" : "VEC2"
        },
        {
            "bufferView" : 19,
            "componentType" : 5123,
            "count" : 204,
            "type" : "SCALAR"
        },
        {
            "bufferView" : 20,
            "componentType" : 5126,
            "count" : 24,
            "max" : [
                0.05000000074505806,
                0.08986497670412064,
                0.05000000074505806
            ],
            "min" : [
                -0.05000000074505806,
                -0.05000000074505806,
                -0.05000000074505806
            ],
            "type" : "VEC3"
        },
        {
            "bufferView" : 21,
            "componentType" : 5126,
            "count" : 24,
            "type" : "VEC3"
        },
        {
            "bufferView" : 22,
            "componentType" : 5126,
            "count" : 24,
            "type" : "VEC2"
        },
        {
            "bufferView" : 23,
            "componentType" : 5126,
            "count" : 60,
            "max" : [
                0.04755282774567604,
                0.009999999776482582,
                0.05000000074505806
            ],
            "min" : [
                -0.04755282402038574,
                -0.009999999776482582,
                -0.05000000074505806
            ],
            "type" : "VEC3"
        },
        {
            "bufferView" : 24,
            "componentType" : 5126,
            "count" : 60,
            "type" : "VEC3"
        },
        {
            "bufferView" : 25,
            "componentType" : 5126,
            "count" : 60,
            "type" : "VEC2"
        },
        {
            "bufferView" : 26,
            "componentType" : 5126,
            "count" : 24,
            "max" : [
                0.05000000074505806,
                0.09834814816713333,
                0.05000000074505806
            ],
            "min" : [
                -0.05000000074505806,
                -0.05000000074505806,
                -0.05000000074505806
            ],
            "type" : "VEC3"
        },
        {
            "bufferView" : 27,
            "componentType" : 5126,
            "count" : 24,
            "type" : "VEC3"
        },
        {
            "bufferView" : 28,
            "componentType" : 5126,
            "count" : 24,
            "type" : "VEC2"
        },
        {
            "bufferView" : 29,
            "componentType" : 5126,
            "count" : 129,
            "max" : [
                0.05000000074505806,
                0.09834814816713333,
                0.05000000074505806
            ],
            "min" : [
                -0.05000000074505806,
                -0.05000000074505806,
                -0.05000000074505806
            ],
            "type" : "VEC3"
        },
        {
            "bufferView" : 30,
            "componentType" : 5126,
            "count" : 129,
            "type" : "VEC3"
        },
        {
            "bufferView" : 31,
            "componentType" : 5126,
            "count" : 129,
            "type" : "VEC2"
        }
    ],
    "bufferViews" : [
        {
            "buffer" : 0,
            "byteLength" : 1824,
            "byteOffset" : 0
        },
        {
            "buffer" : 0,
            "byteLength" : 1824,
            "byteOffset" : 1824
        },
        {
            "buffer" : 0,
            "byteLength" : 1216,
            "byteOffset" : 3648
        },
        {
            "buffer" : 0,
            "byteLength" : 504,
            "byteOffset" : 4864
        },
        {
            "buffer" : 0,
            "byteLength" : 2088,
            "byteOffset" : 5368
        },
        {
            "buffer" : 0,
            "byteLength" : 2088,
            "byteOffset" : 7456
        },
        {
            "buffer" : 0,
            "byteLength" : 1392,
            "byteOffset" : 9544
        },
        {
            "buffer" : 0,
            "byteLength" : 576,
            "byteOffset" : 10936
        },
        {
            "buffer" : 0,
            "byteLength" : 720,
            "byteOffset" : 11512
        },
        {
            "buffer" : 0,
            "byteLength" : 720,
            "byteOffset" : 12232
        },
        {
            "buffer" : 0,
            "byteLength" : 480,
            "byteOffset" : 12952
        },
        {
            "buffer" : 0,
            "byteLength" : 216,
            "byteOffset" : 13432
        },
        {
            "buffer" : 0,
            "byteLength" : 288,
            "byteOffset" : 13648
        },
        {
            "buffer" : 0,
            "byteLength" : 288,
            "byteOffset" : 13936
        },
        {
            "buffer" : 0,
            "byteLength" : 192,
            "byteOffset" : 14224
        },
        {
            "buffer" : 0,
            "byteLength" : 72,
            "byteOffset" : 14416
        },
        {
            "buffer" : 0,
            "byteLength" : 1548,
            "byteOffset" : 14488
        },
        {
            "buffer" : 0,
            "byteLength" : 1548,
            "byteOffset" : 16036
        },
        {
            "buffer" : 0,
            "byteLength" : 1032,
            "byteOffset" : 17584
        },
        {
            "buffer" : 0,
            "byteLength" : 408,
            "byteOffset" : 18616
        },
        {
            "buffer" : 0,
            "byteLength" : 288,
            "byteOffset" : 19024
        },
        {
            "buffer" : 0,
            "byteLength" : 288,
            "byteOffset" : 19312
        },
        {
            "buffer" : 0,
            "byteLength" : 192,
            "byteOffset" : 19600
        },
        {
            "buffer" : 0,
            "byteLength" : 720,
            "byteOffset" : 19792
        },
        {
            "buffer" : 0,
            "byteLength" : 720,
            "byteOffset" : 20512
        },
        {
            "buffer" : 0,
            "byteLength" : 480,
            "byteOffset" : 21232
        },
        {
            "buffer" : 0,
            "byteLength" : 288,
            "byteOffset" : 21712
        },
        {
            "buffer" : 0,
            "byteLength" : 288,
            "byteOffset" : 22000
        },
        {
            "buffer" : 0,
            "byteLength" : 192,
            "byteOffset" : 22288
        },
        {
            "buffer" : 0,
            "byteLength" : 1548,
            "byteOffset" : 22480
        },
        {
            "buffer" : 0,
            "byteLength" : 1548,
            "byteOffset" : 24028
        },
        {
            "buffer" : 0,
            "byteLength" : 1032,
            "byteOffset" : 25576
        }
    ],
    "buffers" : [
        {
            "byteLength" : 26608,
            "uri" : "data:application/octet-stream;base64,"
        }
    ]
}
